<svg width="22" height="27" viewBox="0 0 22 27" fill="none" xmlns="http://www.w3.org/2000/svg">
<path d="M11 27C12.5125 27 13.75 25.7538 13.75 24.2308H8.25C8.25 25.7538 9.4875 27 11 27ZM19.25 18.6923V11.7692C19.25 7.51846 17.0087 3.96 13.0625 3.01846V2.07692C13.0625 0.927692 12.1412 0 11 0C9.85875 0 8.9375 0.927692 8.9375 2.07692V3.01846C5.005 3.96 2.75 7.50462 2.75 11.7692V18.6923L0 21.4615V22.8462H22V21.4615L19.25 18.6923ZM16.5 20.0769H5.5V11.7692C5.5 8.33538 7.57625 5.53846 11 5.53846C14.4237 5.53846 16.5 8.33538 16.5 11.7692V20.0769Z" fill="#B2B2B2"/>
</svg>
