<svg width="361" height="381" viewBox="0 0 361 381" fill="none" xmlns="http://www.w3.org/2000/svg">
    <rect x="113.402" y="178.172" width="134.471" height="201.887" fill="#A2B5FC"/>
    <g filter="url(#filter0_f_128_13980)">
        <circle cx="139.502" cy="149.908" r="6.6702" fill="#CFD2FE"/>
        <circle cx="139.502" cy="132.311" r="9.05493" fill="#CFD2FE"/>
        <circle cx="139.502" cy="159.571" r="4.25697" fill="#CFD2FE"/>
        <circle cx="139.502" cy="148.644" r="4.25701" fill="#CFD2FE"/>
        <circle cx="139.502" cy="128.072" r="4.23825" fill="#CFD2FE"/>
    </g>
    <path d="M130.557 125.219H148.667V142.002L130.557 157.176V125.219Z" fill="#9DADE5"/>
    <rect x="128" y="122" width="22.8761" height="8.47666" rx="1" fill="#C2CAFF"/>
    <path d="M106.285 181.038C101.377 181.038 99.4068 174.705 103.448 171.921L177.8 120.682C179.509 119.504 181.766 119.504 183.475 120.682L257.828 171.921C261.868 174.705 259.898 181.038 254.99 181.038H106.285Z"
          fill="#C2CAFF"/>
    <path d="M106.763 181.038L180.638 129.698L254.513 181.038H106.763Z" fill="#444B89" fill-opacity="0.43"/>
    <path d="M113.402 181.037L180.638 134.702L247.873 181.037V184.152H113.402V181.037Z" fill="#A2B5FC"/>
    <path d="M165.638 308.505C165.638 300.221 172.353 293.505 180.638 293.505C188.922 293.505 195.638 300.221 195.638 308.505V343.505H165.638V308.505Z"
          fill="#0C1648"/>
    <ellipse cx="190.324" cy="322.498" rx="2.27093" ry="2.25" fill="white"/>
    <circle cx="180.638" cy="174.505" r="18" fill="#0C1648" stroke="#783582" stroke-width="4"/>
    <path d="M144.138 218.005C144.138 212.206 148.839 207.505 154.638 207.505C160.437 207.505 165.138 212.206 165.138 218.005V231.923H144.138V218.005Z"
          fill="#0C1648"/>
    <path d="M140.638 232.924C140.638 232.371 141.085 231.924 141.638 231.924H167.638C168.19 231.924 168.638 232.371 168.638 232.924V236.505C168.638 237.057 168.19 237.505 167.638 237.505H141.638C141.085 237.505 140.638 237.057 140.638 236.505V232.924Z"
          fill="#783582"/>
    <path d="M196.138 218.005C196.138 212.206 200.839 207.505 206.638 207.505C212.437 207.505 217.138 212.206 217.138 218.005V231.923H196.138V218.005Z"
          fill="#0C1648"/>
    <path d="M192.638 232.924C192.638 232.371 193.085 231.924 193.638 231.924H219.638C220.19 231.924 220.638 232.371 220.638 232.924V236.505C220.638 237.057 220.19 237.505 219.638 237.505H193.638C193.085 237.505 192.638 237.057 192.638 236.505V232.924Z"
          fill="#783582"/>
    <path d="M144.138 261.005C144.138 255.206 148.839 250.505 154.638 250.505C160.437 250.505 165.138 255.206 165.138 261.005V274.923H144.138V261.005Z"
          fill="#0C1648"/>
    <path d="M140.638 275.924C140.638 275.371 141.085 274.924 141.638 274.924H167.638C168.19 274.924 168.638 275.371 168.638 275.924V279.505C168.638 280.057 168.19 280.505 167.638 280.505H141.638C141.085 280.505 140.638 280.057 140.638 279.505V275.924Z"
          fill="#783582"/>
    <path d="M196.138 261.005C196.138 255.206 200.839 250.505 206.638 250.505C212.437 250.505 217.138 255.206 217.138 261.005V274.923H196.138V261.005Z"
          fill="#0C1648"/>
    <path d="M192.638 275.924C192.638 275.371 193.085 274.924 193.638 274.924H219.638C220.19 274.924 220.638 275.371 220.638 275.924V279.505C220.638 280.057 220.19 280.505 219.638 280.505H193.638C193.085 280.505 192.638 280.057 192.638 279.505V275.924Z"
          fill="#783582"/>
    <defs>
        <filter id="filter0_f_128_13980" x="110" y="-15" width="59" height="193.828" filterUnits="userSpaceOnUse"
                color-interpolation-filters="sRGB">
            <feFlood flood-opacity="0" result="BackgroundImageFix"/>
            <feBlend mode="normal" in="SourceGraphic" in2="BackgroundImageFix" result="shape"/>
            <feGaussianBlur stdDeviation="7.5" result="effect1_foregroundBlur_128_13980"/>
        </filter>
    </defs>
</svg>
