<svg width="361" height="257" viewBox="0 0 361 257" fill="none" xmlns="http://www.w3.org/2000/svg">
<path d="M134.056 87.9236H227.006V256.081H134.056V87.9236Z" fill="#4549B0"/>
<path d="M127.562 90.9919C123.531 90.9919 121.157 86.4667 123.448 83.1501L176.417 6.46963C178.405 3.59202 182.657 3.59202 184.645 6.46963L237.614 83.1501C239.905 86.4667 237.531 90.9919 233.5 90.9919H127.562Z" fill="#C2CAFF"/>
<path d="M129.467 90.9919L180.531 16.4458L231.595 90.9919H129.467Z" fill="#444B89" fill-opacity="0.43"/>
<path d="M134.056 90.9903L180.531 23.7114L227.006 90.9903V95.514H134.056V90.9903Z" fill="#4549B0"/>
<path d="M165.332 176.527C165.332 168.243 172.048 161.527 180.332 161.527C188.616 161.527 195.332 168.243 195.332 176.527V211.527H165.332V176.527Z" fill="#0C1648"/>
<ellipse cx="190.018" cy="190.521" rx="2.27093" ry="2.25" fill="white"/>
<circle cx="180.332" cy="85.5273" r="18" fill="#0C1648" stroke="#783582" stroke-width="4"/>
<path d="M169.832 129.027C169.832 123.228 174.533 118.527 180.332 118.527C186.131 118.527 190.832 123.228 190.832 129.027V142.946H169.832V129.027Z" fill="#0C1648"/>
<path d="M166.332 143.946C166.332 143.394 166.78 142.946 167.332 142.946H193.332C193.884 142.946 194.332 143.394 194.332 143.946V147.527C194.332 148.08 193.884 148.527 193.332 148.527H167.332C166.78 148.527 166.332 148.08 166.332 147.527V143.946Z" fill="#783582"/>
</svg>
