<svg width="361" height="287" viewBox="0 0 361 287" fill="none" xmlns="http://www.w3.org/2000/svg">
<g filter="url(#filter0_di_101_22485)">
<circle cx="180.889" cy="56" r="20" fill="#FFF55A"/>
</g>
<path d="M167.014 64.6212C167.014 64.8812 167.222 65.1152 167.508 65.1152H177.908C178.168 65.1152 178.402 64.8812 178.402 64.6212V62.2812C178.402 62.0212 178.168 61.7872 177.908 61.7872H173.332C174.554 60.0712 176.686 57.2892 177.518 55.8072C178.142 54.5852 178.532 53.8052 178.532 52.4272C178.532 49.5412 176.348 47.1752 172.63 47.1752C169.536 47.1752 167.43 49.7232 167.43 49.7232C167.248 49.9312 167.274 50.2432 167.456 50.3992L169.042 52.0112C169.25 52.2192 169.562 52.2192 169.77 52.0112C170.264 51.4652 171.226 50.7112 172.292 50.7112C173.748 50.7112 174.58 51.5952 174.58 52.5832C174.58 53.3112 174.242 54.0392 173.904 54.5592C172.37 56.8992 168.522 62.1252 167.014 64.1012V64.6212ZM180.63 61.4492H188.248V64.6212C188.248 64.8812 188.482 65.1152 188.742 65.1152H191.524C191.784 65.1152 192.018 64.8812 192.018 64.6212L191.992 61.4232H194.046C194.332 61.4232 194.54 61.1892 194.54 60.9292V58.7712C194.54 58.5112 194.332 58.3032 194.046 58.3032H191.992L191.966 47.6432C191.966 47.3572 191.732 47.1492 191.472 47.1492H189.6C189.366 47.1492 189.288 47.2272 189.21 47.3052L180.136 58.1992V60.9552C180.136 61.2152 180.344 61.4492 180.63 61.4492ZM184.218 58.2252L188.352 53.3892V58.2252H184.218Z" fill="#0C1648" fill-opacity="0.8"/>
<g filter="url(#filter1_di_101_22485)">
<path d="M66.3888 99.5C66.3888 93.701 71.0898 89 76.8888 89C82.6878 89 87.3888 93.701 87.3888 99.5V113.419H66.3888V99.5Z" fill="#FFF55A"/>
</g>
<path d="M62.8888 114.419C62.8888 113.866 63.3365 113.419 63.8888 113.419H89.8888C90.4411 113.419 90.8888 113.866 90.8888 114.419V118C90.8888 118.552 90.4411 119 89.8888 119H63.8888C63.3365 119 62.8888 118.552 62.8888 118V114.419Z" fill="#CAE6FF"/>
<g filter="url(#filter2_di_101_22485)">
<path d="M118.389 99.5C118.389 93.701 123.09 89 128.889 89C134.688 89 139.389 93.701 139.389 99.5V113.419H118.389V99.5Z" fill="#FFF55A"/>
</g>
<path d="M114.889 114.419C114.889 113.866 115.337 113.419 115.889 113.419H141.889C142.441 113.419 142.889 113.866 142.889 114.419V118C142.889 118.552 142.441 119 141.889 119H115.889C115.337 119 114.889 118.552 114.889 118V114.419Z" fill="#CAE6FF"/>
<g filter="url(#filter3_di_101_22485)">
<path d="M170.389 99.5C170.389 93.701 175.09 89 180.889 89C186.688 89 191.389 93.701 191.389 99.5V113.419H170.389V99.5Z" fill="#FFF55A"/>
</g>
<path d="M166.889 114.419C166.889 113.866 167.337 113.419 167.889 113.419H193.889C194.441 113.419 194.889 113.866 194.889 114.419V118C194.889 118.552 194.441 119 193.889 119H167.889C167.337 119 166.889 118.552 166.889 118V114.419Z" fill="#CAE6FF"/>
<g filter="url(#filter4_di_101_22485)">
<path d="M222.389 99.5C222.389 93.701 227.09 89 232.889 89C238.688 89 243.389 93.701 243.389 99.5V113.419H222.389V99.5Z" fill="#FFF55A"/>
</g>
<path d="M218.889 114.419C218.889 113.866 219.337 113.419 219.889 113.419H245.889C246.441 113.419 246.889 113.866 246.889 114.419V118C246.889 118.552 246.441 119 245.889 119H219.889C219.337 119 218.889 118.552 218.889 118V114.419Z" fill="#CAE6FF"/>
<g filter="url(#filter5_di_101_22485)">
<path d="M274.389 99.5C274.389 93.701 279.09 89 284.889 89C290.688 89 295.389 93.701 295.389 99.5V113.419H274.389V99.5Z" fill="#FFF55A"/>
</g>
<path d="M270.889 114.419C270.889 113.866 271.337 113.419 271.889 113.419H297.889C298.441 113.419 298.889 113.866 298.889 114.419V118C298.889 118.552 298.441 119 297.889 119H271.889C271.337 119 270.889 118.552 270.889 118V114.419Z" fill="#CAE6FF"/>
<g filter="url(#filter6_di_101_22485)">
<path d="M66.3888 142.5C66.3888 136.701 71.0898 132 76.8888 132C82.6878 132 87.3888 136.701 87.3888 142.5V156.419H66.3888V142.5Z" fill="#FFF55A"/>
</g>
<path d="M62.8888 157.419C62.8888 156.866 63.3365 156.419 63.8888 156.419H89.8888C90.4411 156.419 90.8888 156.866 90.8888 157.419V161C90.8888 161.552 90.4411 162 89.8888 162H63.8888C63.3365 162 62.8888 161.552 62.8888 161V157.419Z" fill="#CAE6FF"/>
<g filter="url(#filter7_di_101_22485)">
<path d="M118.389 142.5C118.389 136.701 123.09 132 128.889 132C134.688 132 139.389 136.701 139.389 142.5V156.419H118.389V142.5Z" fill="#FFF55A"/>
</g>
<path d="M114.889 157.419C114.889 156.866 115.337 156.419 115.889 156.419H141.889C142.441 156.419 142.889 156.866 142.889 157.419V161C142.889 161.552 142.441 162 141.889 162H115.889C115.337 162 114.889 161.552 114.889 161V157.419Z" fill="#CAE6FF"/>
<g filter="url(#filter8_di_101_22485)">
<path d="M170.389 142.5C170.389 136.701 175.09 132 180.889 132C186.688 132 191.389 136.701 191.389 142.5V156.419H170.389V142.5Z" fill="#FFF55A"/>
</g>
<path d="M166.889 157.419C166.889 156.866 167.337 156.419 167.889 156.419H193.889C194.441 156.419 194.889 156.866 194.889 157.419V161C194.889 161.552 194.441 162 193.889 162H167.889C167.337 162 166.889 161.552 166.889 161V157.419Z" fill="#CAE6FF"/>
<g filter="url(#filter9_di_101_22485)">
<path d="M222.389 142.5C222.389 136.701 227.09 132 232.889 132C238.688 132 243.389 136.701 243.389 142.5V156.419H222.389V142.5Z" fill="#FFF55A"/>
</g>
<path d="M218.889 157.419C218.889 156.866 219.337 156.419 219.889 156.419H245.889C246.441 156.419 246.889 156.866 246.889 157.419V161C246.889 161.552 246.441 162 245.889 162H219.889C219.337 162 218.889 161.552 218.889 161V157.419Z" fill="#CAE6FF"/>
<g filter="url(#filter10_di_101_22485)">
<path d="M274.389 142.5C274.389 136.701 279.09 132 284.889 132C290.688 132 295.389 136.701 295.389 142.5V156.419H274.389V142.5Z" fill="#FFF55A"/>
</g>
<path d="M270.889 157.419C270.889 156.866 271.337 156.419 271.889 156.419H297.889C298.441 156.419 298.889 156.866 298.889 157.419V161C298.889 161.552 298.441 162 297.889 162H271.889C271.337 162 270.889 161.552 270.889 161V157.419Z" fill="#CAE6FF"/>
<g filter="url(#filter11_di_101_22485)">
<path d="M66.3888 185.5C66.3888 179.701 71.0898 175 76.8888 175C82.6878 175 87.3888 179.701 87.3888 185.5V199.419H66.3888V185.5Z" fill="#FFF55A"/>
</g>
<path d="M62.8888 200.419C62.8888 199.866 63.3365 199.419 63.8888 199.419H89.8888C90.4411 199.419 90.8888 199.866 90.8888 200.419V204C90.8888 204.552 90.4411 205 89.8888 205H63.8888C63.3365 205 62.8888 204.552 62.8888 204V200.419Z" fill="#CAE6FF"/>
<g filter="url(#filter12_di_101_22485)">
<path d="M118.389 185.5C118.389 179.701 123.09 175 128.889 175C134.688 175 139.389 179.701 139.389 185.5V199.419H118.389V185.5Z" fill="#FFF55A"/>
</g>
<path d="M114.889 200.419C114.889 199.866 115.337 199.419 115.889 199.419H141.889C142.441 199.419 142.889 199.866 142.889 200.419V204C142.889 204.552 142.441 205 141.889 205H115.889C115.337 205 114.889 204.552 114.889 204V200.419Z" fill="#CAE6FF"/>
<g filter="url(#filter13_di_101_22485)">
<path d="M170.389 185.5C170.389 179.701 175.09 175 180.889 175C186.688 175 191.389 179.701 191.389 185.5V199.419H170.389V185.5Z" fill="#FFF55A"/>
</g>
<path d="M166.889 200.419C166.889 199.866 167.337 199.419 167.889 199.419H193.889C194.441 199.419 194.889 199.866 194.889 200.419V204C194.889 204.552 194.441 205 193.889 205H167.889C167.337 205 166.889 204.552 166.889 204V200.419Z" fill="#CAE6FF"/>
<g filter="url(#filter14_di_101_22485)">
<path d="M222.389 185.5C222.389 179.701 227.09 175 232.889 175C238.688 175 243.389 179.701 243.389 185.5V199.419H222.389V185.5Z" fill="#FFF55A"/>
</g>
<path d="M218.889 200.419C218.889 199.866 219.337 199.419 219.889 199.419H245.889C246.441 199.419 246.889 199.866 246.889 200.419V204C246.889 204.552 246.441 205 245.889 205H219.889C219.337 205 218.889 204.552 218.889 204V200.419Z" fill="#CAE6FF"/>
<g filter="url(#filter15_di_101_22485)">
<path d="M274.389 185.5C274.389 179.701 279.09 175 284.889 175C290.688 175 295.389 179.701 295.389 185.5V199.419H274.389V185.5Z" fill="#FFF55A"/>
</g>
<path d="M270.889 200.419C270.889 199.866 271.337 199.419 271.889 199.419H297.889C298.441 199.419 298.889 199.866 298.889 200.419V204C298.889 204.552 298.441 205 297.889 205H271.889C271.337 205 270.889 204.552 270.889 204V200.419Z" fill="#CAE6FF"/>
<g filter="url(#filter16_di_101_22485)">
<path d="M66.3336 228.5C66.3336 222.701 71.0346 218 76.8336 218C82.6326 218 87.3336 222.701 87.3336 228.5V242.419H66.3336V228.5Z" fill="#FFF55A"/>
</g>
<path d="M62.8336 243.419C62.8336 242.866 63.2813 242.419 63.8336 242.419H89.8336C90.3859 242.419 90.8336 242.866 90.8336 243.419V247C90.8336 247.552 90.3859 248 89.8336 248H63.8336C63.2813 248 62.8336 247.552 62.8336 247V243.419Z" fill="#CAE6FF"/>
<g filter="url(#filter17_di_101_22485)">
<path d="M118.334 228.5C118.334 222.701 123.035 218 128.834 218C134.633 218 139.334 222.701 139.334 228.5V242.419H118.334V228.5Z" fill="#FFF55A"/>
</g>
<path d="M114.834 243.419C114.834 242.866 115.281 242.419 115.834 242.419H141.834C142.386 242.419 142.834 242.866 142.834 243.419V247C142.834 247.552 142.386 248 141.834 248H115.834C115.281 248 114.834 247.552 114.834 247V243.419Z" fill="#CAE6FF"/>
<g filter="url(#filter18_di_101_22485)">
<path d="M222.334 228.5C222.334 222.701 227.035 218 232.834 218C238.633 218 243.334 222.701 243.334 228.5V242.419H222.334V228.5Z" fill="#FFF55A"/>
</g>
<path d="M218.834 243.419C218.834 242.866 219.281 242.419 219.834 242.419H245.834C246.386 242.419 246.834 242.866 246.834 243.419V247C246.834 247.552 246.386 248 245.834 248H219.834C219.281 248 218.834 247.552 218.834 247V243.419Z" fill="#CAE6FF"/>
<g filter="url(#filter19_di_101_22485)">
<path d="M274.334 228.5C274.334 222.701 279.035 218 284.834 218C290.633 218 295.334 222.701 295.334 228.5V242.419H274.334V228.5Z" fill="#FFF55A"/>
</g>
<path d="M270.834 243.419C270.834 242.866 271.281 242.419 271.834 242.419H297.834C298.386 242.419 298.834 242.866 298.834 243.419V247C298.834 247.552 298.386 248 297.834 248H271.834C271.281 248 270.834 247.552 270.834 247V243.419Z" fill="#CAE6FF"/>
<defs>
<filter id="filter0_di_101_22485" x="120.889" y="0" width="120" height="120" filterUnits="userSpaceOnUse" color-interpolation-filters="sRGB">
<feFlood flood-opacity="0" result="BackgroundImageFix"/>
<feColorMatrix in="SourceAlpha" type="matrix" values="0 0 0 0 0 0 0 0 0 0 0 0 0 0 0 0 0 0 127 0" result="hardAlpha"/>
<feOffset dy="4"/>
<feGaussianBlur stdDeviation="20"/>
<feComposite in2="hardAlpha" operator="out"/>
<feColorMatrix type="matrix" values="0 0 0 0 1 0 0 0 0 0.818824 0 0 0 0 0.352941 0 0 0 1 0"/>
<feBlend mode="normal" in2="BackgroundImageFix" result="effect1_dropShadow_101_22485"/>
<feBlend mode="normal" in="SourceGraphic" in2="effect1_dropShadow_101_22485" result="shape"/>
<feColorMatrix in="SourceAlpha" type="matrix" values="0 0 0 0 0 0 0 0 0 0 0 0 0 0 0 0 0 0 127 0" result="hardAlpha"/>
<feOffset/>
<feGaussianBlur stdDeviation="4"/>
<feComposite in2="hardAlpha" operator="arithmetic" k2="-1" k3="1"/>
<feColorMatrix type="matrix" values="0 0 0 0 0.956863 0 0 0 0 0.784314 0 0 0 0 0.172549 0 0 0 1 0"/>
<feBlend mode="normal" in2="shape" result="effect2_innerShadow_101_22485"/>
</filter>
<filter id="filter1_di_101_22485" x="26.3888" y="53" width="101" height="104.419" filterUnits="userSpaceOnUse" color-interpolation-filters="sRGB">
<feFlood flood-opacity="0" result="BackgroundImageFix"/>
<feColorMatrix in="SourceAlpha" type="matrix" values="0 0 0 0 0 0 0 0 0 0 0 0 0 0 0 0 0 0 127 0" result="hardAlpha"/>
<feOffset dy="4"/>
<feGaussianBlur stdDeviation="20"/>
<feComposite in2="hardAlpha" operator="out"/>
<feColorMatrix type="matrix" values="0 0 0 0 1 0 0 0 0 0.818824 0 0 0 0 0.352941 0 0 0 1 0"/>
<feBlend mode="normal" in2="BackgroundImageFix" result="effect1_dropShadow_101_22485"/>
<feBlend mode="normal" in="SourceGraphic" in2="effect1_dropShadow_101_22485" result="shape"/>
<feColorMatrix in="SourceAlpha" type="matrix" values="0 0 0 0 0 0 0 0 0 0 0 0 0 0 0 0 0 0 127 0" result="hardAlpha"/>
<feOffset/>
<feGaussianBlur stdDeviation="4"/>
<feComposite in2="hardAlpha" operator="arithmetic" k2="-1" k3="1"/>
<feColorMatrix type="matrix" values="0 0 0 0 0.956863 0 0 0 0 0.784314 0 0 0 0 0.172549 0 0 0 1 0"/>
<feBlend mode="normal" in2="shape" result="effect2_innerShadow_101_22485"/>
</filter>
<filter id="filter2_di_101_22485" x="78.3888" y="53" width="101" height="104.419" filterUnits="userSpaceOnUse" color-interpolation-filters="sRGB">
<feFlood flood-opacity="0" result="BackgroundImageFix"/>
<feColorMatrix in="SourceAlpha" type="matrix" values="0 0 0 0 0 0 0 0 0 0 0 0 0 0 0 0 0 0 127 0" result="hardAlpha"/>
<feOffset dy="4"/>
<feGaussianBlur stdDeviation="20"/>
<feComposite in2="hardAlpha" operator="out"/>
<feColorMatrix type="matrix" values="0 0 0 0 1 0 0 0 0 0.818824 0 0 0 0 0.352941 0 0 0 1 0"/>
<feBlend mode="normal" in2="BackgroundImageFix" result="effect1_dropShadow_101_22485"/>
<feBlend mode="normal" in="SourceGraphic" in2="effect1_dropShadow_101_22485" result="shape"/>
<feColorMatrix in="SourceAlpha" type="matrix" values="0 0 0 0 0 0 0 0 0 0 0 0 0 0 0 0 0 0 127 0" result="hardAlpha"/>
<feOffset/>
<feGaussianBlur stdDeviation="4"/>
<feComposite in2="hardAlpha" operator="arithmetic" k2="-1" k3="1"/>
<feColorMatrix type="matrix" values="0 0 0 0 0.956863 0 0 0 0 0.784314 0 0 0 0 0.172549 0 0 0 1 0"/>
<feBlend mode="normal" in2="shape" result="effect2_innerShadow_101_22485"/>
</filter>
<filter id="filter3_di_101_22485" x="130.389" y="53" width="101" height="104.419" filterUnits="userSpaceOnUse" color-interpolation-filters="sRGB">
<feFlood flood-opacity="0" result="BackgroundImageFix"/>
<feColorMatrix in="SourceAlpha" type="matrix" values="0 0 0 0 0 0 0 0 0 0 0 0 0 0 0 0 0 0 127 0" result="hardAlpha"/>
<feOffset dy="4"/>
<feGaussianBlur stdDeviation="20"/>
<feComposite in2="hardAlpha" operator="out"/>
<feColorMatrix type="matrix" values="0 0 0 0 1 0 0 0 0 0.818824 0 0 0 0 0.352941 0 0 0 1 0"/>
<feBlend mode="normal" in2="BackgroundImageFix" result="effect1_dropShadow_101_22485"/>
<feBlend mode="normal" in="SourceGraphic" in2="effect1_dropShadow_101_22485" result="shape"/>
<feColorMatrix in="SourceAlpha" type="matrix" values="0 0 0 0 0 0 0 0 0 0 0 0 0 0 0 0 0 0 127 0" result="hardAlpha"/>
<feOffset/>
<feGaussianBlur stdDeviation="4"/>
<feComposite in2="hardAlpha" operator="arithmetic" k2="-1" k3="1"/>
<feColorMatrix type="matrix" values="0 0 0 0 0.956863 0 0 0 0 0.784314 0 0 0 0 0.172549 0 0 0 1 0"/>
<feBlend mode="normal" in2="shape" result="effect2_innerShadow_101_22485"/>
</filter>
<filter id="filter4_di_101_22485" x="182.389" y="53" width="101" height="104.419" filterUnits="userSpaceOnUse" color-interpolation-filters="sRGB">
<feFlood flood-opacity="0" result="BackgroundImageFix"/>
<feColorMatrix in="SourceAlpha" type="matrix" values="0 0 0 0 0 0 0 0 0 0 0 0 0 0 0 0 0 0 127 0" result="hardAlpha"/>
<feOffset dy="4"/>
<feGaussianBlur stdDeviation="20"/>
<feComposite in2="hardAlpha" operator="out"/>
<feColorMatrix type="matrix" values="0 0 0 0 1 0 0 0 0 0.818824 0 0 0 0 0.352941 0 0 0 1 0"/>
<feBlend mode="normal" in2="BackgroundImageFix" result="effect1_dropShadow_101_22485"/>
<feBlend mode="normal" in="SourceGraphic" in2="effect1_dropShadow_101_22485" result="shape"/>
<feColorMatrix in="SourceAlpha" type="matrix" values="0 0 0 0 0 0 0 0 0 0 0 0 0 0 0 0 0 0 127 0" result="hardAlpha"/>
<feOffset/>
<feGaussianBlur stdDeviation="4"/>
<feComposite in2="hardAlpha" operator="arithmetic" k2="-1" k3="1"/>
<feColorMatrix type="matrix" values="0 0 0 0 0.956863 0 0 0 0 0.784314 0 0 0 0 0.172549 0 0 0 1 0"/>
<feBlend mode="normal" in2="shape" result="effect2_innerShadow_101_22485"/>
</filter>
<filter id="filter5_di_101_22485" x="234.389" y="53" width="101" height="104.419" filterUnits="userSpaceOnUse" color-interpolation-filters="sRGB">
<feFlood flood-opacity="0" result="BackgroundImageFix"/>
<feColorMatrix in="SourceAlpha" type="matrix" values="0 0 0 0 0 0 0 0 0 0 0 0 0 0 0 0 0 0 127 0" result="hardAlpha"/>
<feOffset dy="4"/>
<feGaussianBlur stdDeviation="20"/>
<feComposite in2="hardAlpha" operator="out"/>
<feColorMatrix type="matrix" values="0 0 0 0 1 0 0 0 0 0.818824 0 0 0 0 0.352941 0 0 0 1 0"/>
<feBlend mode="normal" in2="BackgroundImageFix" result="effect1_dropShadow_101_22485"/>
<feBlend mode="normal" in="SourceGraphic" in2="effect1_dropShadow_101_22485" result="shape"/>
<feColorMatrix in="SourceAlpha" type="matrix" values="0 0 0 0 0 0 0 0 0 0 0 0 0 0 0 0 0 0 127 0" result="hardAlpha"/>
<feOffset/>
<feGaussianBlur stdDeviation="4"/>
<feComposite in2="hardAlpha" operator="arithmetic" k2="-1" k3="1"/>
<feColorMatrix type="matrix" values="0 0 0 0 0.956863 0 0 0 0 0.784314 0 0 0 0 0.172549 0 0 0 1 0"/>
<feBlend mode="normal" in2="shape" result="effect2_innerShadow_101_22485"/>
</filter>
<filter id="filter6_di_101_22485" x="26.3888" y="96" width="101" height="104.419" filterUnits="userSpaceOnUse" color-interpolation-filters="sRGB">
<feFlood flood-opacity="0" result="BackgroundImageFix"/>
<feColorMatrix in="SourceAlpha" type="matrix" values="0 0 0 0 0 0 0 0 0 0 0 0 0 0 0 0 0 0 127 0" result="hardAlpha"/>
<feOffset dy="4"/>
<feGaussianBlur stdDeviation="20"/>
<feComposite in2="hardAlpha" operator="out"/>
<feColorMatrix type="matrix" values="0 0 0 0 1 0 0 0 0 0.818824 0 0 0 0 0.352941 0 0 0 1 0"/>
<feBlend mode="normal" in2="BackgroundImageFix" result="effect1_dropShadow_101_22485"/>
<feBlend mode="normal" in="SourceGraphic" in2="effect1_dropShadow_101_22485" result="shape"/>
<feColorMatrix in="SourceAlpha" type="matrix" values="0 0 0 0 0 0 0 0 0 0 0 0 0 0 0 0 0 0 127 0" result="hardAlpha"/>
<feOffset/>
<feGaussianBlur stdDeviation="4"/>
<feComposite in2="hardAlpha" operator="arithmetic" k2="-1" k3="1"/>
<feColorMatrix type="matrix" values="0 0 0 0 0.956863 0 0 0 0 0.784314 0 0 0 0 0.172549 0 0 0 1 0"/>
<feBlend mode="normal" in2="shape" result="effect2_innerShadow_101_22485"/>
</filter>
<filter id="filter7_di_101_22485" x="78.3888" y="96" width="101" height="104.419" filterUnits="userSpaceOnUse" color-interpolation-filters="sRGB">
<feFlood flood-opacity="0" result="BackgroundImageFix"/>
<feColorMatrix in="SourceAlpha" type="matrix" values="0 0 0 0 0 0 0 0 0 0 0 0 0 0 0 0 0 0 127 0" result="hardAlpha"/>
<feOffset dy="4"/>
<feGaussianBlur stdDeviation="20"/>
<feComposite in2="hardAlpha" operator="out"/>
<feColorMatrix type="matrix" values="0 0 0 0 1 0 0 0 0 0.818824 0 0 0 0 0.352941 0 0 0 1 0"/>
<feBlend mode="normal" in2="BackgroundImageFix" result="effect1_dropShadow_101_22485"/>
<feBlend mode="normal" in="SourceGraphic" in2="effect1_dropShadow_101_22485" result="shape"/>
<feColorMatrix in="SourceAlpha" type="matrix" values="0 0 0 0 0 0 0 0 0 0 0 0 0 0 0 0 0 0 127 0" result="hardAlpha"/>
<feOffset/>
<feGaussianBlur stdDeviation="4"/>
<feComposite in2="hardAlpha" operator="arithmetic" k2="-1" k3="1"/>
<feColorMatrix type="matrix" values="0 0 0 0 0.956863 0 0 0 0 0.784314 0 0 0 0 0.172549 0 0 0 1 0"/>
<feBlend mode="normal" in2="shape" result="effect2_innerShadow_101_22485"/>
</filter>
<filter id="filter8_di_101_22485" x="130.389" y="96" width="101" height="104.419" filterUnits="userSpaceOnUse" color-interpolation-filters="sRGB">
<feFlood flood-opacity="0" result="BackgroundImageFix"/>
<feColorMatrix in="SourceAlpha" type="matrix" values="0 0 0 0 0 0 0 0 0 0 0 0 0 0 0 0 0 0 127 0" result="hardAlpha"/>
<feOffset dy="4"/>
<feGaussianBlur stdDeviation="20"/>
<feComposite in2="hardAlpha" operator="out"/>
<feColorMatrix type="matrix" values="0 0 0 0 1 0 0 0 0 0.818824 0 0 0 0 0.352941 0 0 0 1 0"/>
<feBlend mode="normal" in2="BackgroundImageFix" result="effect1_dropShadow_101_22485"/>
<feBlend mode="normal" in="SourceGraphic" in2="effect1_dropShadow_101_22485" result="shape"/>
<feColorMatrix in="SourceAlpha" type="matrix" values="0 0 0 0 0 0 0 0 0 0 0 0 0 0 0 0 0 0 127 0" result="hardAlpha"/>
<feOffset/>
<feGaussianBlur stdDeviation="4"/>
<feComposite in2="hardAlpha" operator="arithmetic" k2="-1" k3="1"/>
<feColorMatrix type="matrix" values="0 0 0 0 0.956863 0 0 0 0 0.784314 0 0 0 0 0.172549 0 0 0 1 0"/>
<feBlend mode="normal" in2="shape" result="effect2_innerShadow_101_22485"/>
</filter>
<filter id="filter9_di_101_22485" x="182.389" y="96" width="101" height="104.419" filterUnits="userSpaceOnUse" color-interpolation-filters="sRGB">
<feFlood flood-opacity="0" result="BackgroundImageFix"/>
<feColorMatrix in="SourceAlpha" type="matrix" values="0 0 0 0 0 0 0 0 0 0 0 0 0 0 0 0 0 0 127 0" result="hardAlpha"/>
<feOffset dy="4"/>
<feGaussianBlur stdDeviation="20"/>
<feComposite in2="hardAlpha" operator="out"/>
<feColorMatrix type="matrix" values="0 0 0 0 1 0 0 0 0 0.818824 0 0 0 0 0.352941 0 0 0 1 0"/>
<feBlend mode="normal" in2="BackgroundImageFix" result="effect1_dropShadow_101_22485"/>
<feBlend mode="normal" in="SourceGraphic" in2="effect1_dropShadow_101_22485" result="shape"/>
<feColorMatrix in="SourceAlpha" type="matrix" values="0 0 0 0 0 0 0 0 0 0 0 0 0 0 0 0 0 0 127 0" result="hardAlpha"/>
<feOffset/>
<feGaussianBlur stdDeviation="4"/>
<feComposite in2="hardAlpha" operator="arithmetic" k2="-1" k3="1"/>
<feColorMatrix type="matrix" values="0 0 0 0 0.956863 0 0 0 0 0.784314 0 0 0 0 0.172549 0 0 0 1 0"/>
<feBlend mode="normal" in2="shape" result="effect2_innerShadow_101_22485"/>
</filter>
<filter id="filter10_di_101_22485" x="234.389" y="96" width="101" height="104.419" filterUnits="userSpaceOnUse" color-interpolation-filters="sRGB">
<feFlood flood-opacity="0" result="BackgroundImageFix"/>
<feColorMatrix in="SourceAlpha" type="matrix" values="0 0 0 0 0 0 0 0 0 0 0 0 0 0 0 0 0 0 127 0" result="hardAlpha"/>
<feOffset dy="4"/>
<feGaussianBlur stdDeviation="20"/>
<feComposite in2="hardAlpha" operator="out"/>
<feColorMatrix type="matrix" values="0 0 0 0 1 0 0 0 0 0.818824 0 0 0 0 0.352941 0 0 0 1 0"/>
<feBlend mode="normal" in2="BackgroundImageFix" result="effect1_dropShadow_101_22485"/>
<feBlend mode="normal" in="SourceGraphic" in2="effect1_dropShadow_101_22485" result="shape"/>
<feColorMatrix in="SourceAlpha" type="matrix" values="0 0 0 0 0 0 0 0 0 0 0 0 0 0 0 0 0 0 127 0" result="hardAlpha"/>
<feOffset/>
<feGaussianBlur stdDeviation="4"/>
<feComposite in2="hardAlpha" operator="arithmetic" k2="-1" k3="1"/>
<feColorMatrix type="matrix" values="0 0 0 0 0.956863 0 0 0 0 0.784314 0 0 0 0 0.172549 0 0 0 1 0"/>
<feBlend mode="normal" in2="shape" result="effect2_innerShadow_101_22485"/>
</filter>
<filter id="filter11_di_101_22485" x="26.3888" y="139" width="101" height="104.419" filterUnits="userSpaceOnUse" color-interpolation-filters="sRGB">
<feFlood flood-opacity="0" result="BackgroundImageFix"/>
<feColorMatrix in="SourceAlpha" type="matrix" values="0 0 0 0 0 0 0 0 0 0 0 0 0 0 0 0 0 0 127 0" result="hardAlpha"/>
<feOffset dy="4"/>
<feGaussianBlur stdDeviation="20"/>
<feComposite in2="hardAlpha" operator="out"/>
<feColorMatrix type="matrix" values="0 0 0 0 1 0 0 0 0 0.818824 0 0 0 0 0.352941 0 0 0 1 0"/>
<feBlend mode="normal" in2="BackgroundImageFix" result="effect1_dropShadow_101_22485"/>
<feBlend mode="normal" in="SourceGraphic" in2="effect1_dropShadow_101_22485" result="shape"/>
<feColorMatrix in="SourceAlpha" type="matrix" values="0 0 0 0 0 0 0 0 0 0 0 0 0 0 0 0 0 0 127 0" result="hardAlpha"/>
<feOffset/>
<feGaussianBlur stdDeviation="4"/>
<feComposite in2="hardAlpha" operator="arithmetic" k2="-1" k3="1"/>
<feColorMatrix type="matrix" values="0 0 0 0 0.956863 0 0 0 0 0.784314 0 0 0 0 0.172549 0 0 0 1 0"/>
<feBlend mode="normal" in2="shape" result="effect2_innerShadow_101_22485"/>
</filter>
<filter id="filter12_di_101_22485" x="78.3888" y="139" width="101" height="104.419" filterUnits="userSpaceOnUse" color-interpolation-filters="sRGB">
<feFlood flood-opacity="0" result="BackgroundImageFix"/>
<feColorMatrix in="SourceAlpha" type="matrix" values="0 0 0 0 0 0 0 0 0 0 0 0 0 0 0 0 0 0 127 0" result="hardAlpha"/>
<feOffset dy="4"/>
<feGaussianBlur stdDeviation="20"/>
<feComposite in2="hardAlpha" operator="out"/>
<feColorMatrix type="matrix" values="0 0 0 0 1 0 0 0 0 0.818824 0 0 0 0 0.352941 0 0 0 1 0"/>
<feBlend mode="normal" in2="BackgroundImageFix" result="effect1_dropShadow_101_22485"/>
<feBlend mode="normal" in="SourceGraphic" in2="effect1_dropShadow_101_22485" result="shape"/>
<feColorMatrix in="SourceAlpha" type="matrix" values="0 0 0 0 0 0 0 0 0 0 0 0 0 0 0 0 0 0 127 0" result="hardAlpha"/>
<feOffset/>
<feGaussianBlur stdDeviation="4"/>
<feComposite in2="hardAlpha" operator="arithmetic" k2="-1" k3="1"/>
<feColorMatrix type="matrix" values="0 0 0 0 0.956863 0 0 0 0 0.784314 0 0 0 0 0.172549 0 0 0 1 0"/>
<feBlend mode="normal" in2="shape" result="effect2_innerShadow_101_22485"/>
</filter>
<filter id="filter13_di_101_22485" x="130.389" y="139" width="101" height="104.419" filterUnits="userSpaceOnUse" color-interpolation-filters="sRGB">
<feFlood flood-opacity="0" result="BackgroundImageFix"/>
<feColorMatrix in="SourceAlpha" type="matrix" values="0 0 0 0 0 0 0 0 0 0 0 0 0 0 0 0 0 0 127 0" result="hardAlpha"/>
<feOffset dy="4"/>
<feGaussianBlur stdDeviation="20"/>
<feComposite in2="hardAlpha" operator="out"/>
<feColorMatrix type="matrix" values="0 0 0 0 1 0 0 0 0 0.818824 0 0 0 0 0.352941 0 0 0 1 0"/>
<feBlend mode="normal" in2="BackgroundImageFix" result="effect1_dropShadow_101_22485"/>
<feBlend mode="normal" in="SourceGraphic" in2="effect1_dropShadow_101_22485" result="shape"/>
<feColorMatrix in="SourceAlpha" type="matrix" values="0 0 0 0 0 0 0 0 0 0 0 0 0 0 0 0 0 0 127 0" result="hardAlpha"/>
<feOffset/>
<feGaussianBlur stdDeviation="4"/>
<feComposite in2="hardAlpha" operator="arithmetic" k2="-1" k3="1"/>
<feColorMatrix type="matrix" values="0 0 0 0 0.956863 0 0 0 0 0.784314 0 0 0 0 0.172549 0 0 0 1 0"/>
<feBlend mode="normal" in2="shape" result="effect2_innerShadow_101_22485"/>
</filter>
<filter id="filter14_di_101_22485" x="182.389" y="139" width="101" height="104.419" filterUnits="userSpaceOnUse" color-interpolation-filters="sRGB">
<feFlood flood-opacity="0" result="BackgroundImageFix"/>
<feColorMatrix in="SourceAlpha" type="matrix" values="0 0 0 0 0 0 0 0 0 0 0 0 0 0 0 0 0 0 127 0" result="hardAlpha"/>
<feOffset dy="4"/>
<feGaussianBlur stdDeviation="20"/>
<feComposite in2="hardAlpha" operator="out"/>
<feColorMatrix type="matrix" values="0 0 0 0 1 0 0 0 0 0.818824 0 0 0 0 0.352941 0 0 0 1 0"/>
<feBlend mode="normal" in2="BackgroundImageFix" result="effect1_dropShadow_101_22485"/>
<feBlend mode="normal" in="SourceGraphic" in2="effect1_dropShadow_101_22485" result="shape"/>
<feColorMatrix in="SourceAlpha" type="matrix" values="0 0 0 0 0 0 0 0 0 0 0 0 0 0 0 0 0 0 127 0" result="hardAlpha"/>
<feOffset/>
<feGaussianBlur stdDeviation="4"/>
<feComposite in2="hardAlpha" operator="arithmetic" k2="-1" k3="1"/>
<feColorMatrix type="matrix" values="0 0 0 0 0.956863 0 0 0 0 0.784314 0 0 0 0 0.172549 0 0 0 1 0"/>
<feBlend mode="normal" in2="shape" result="effect2_innerShadow_101_22485"/>
</filter>
<filter id="filter15_di_101_22485" x="234.389" y="139" width="101" height="104.419" filterUnits="userSpaceOnUse" color-interpolation-filters="sRGB">
<feFlood flood-opacity="0" result="BackgroundImageFix"/>
<feColorMatrix in="SourceAlpha" type="matrix" values="0 0 0 0 0 0 0 0 0 0 0 0 0 0 0 0 0 0 127 0" result="hardAlpha"/>
<feOffset dy="4"/>
<feGaussianBlur stdDeviation="20"/>
<feComposite in2="hardAlpha" operator="out"/>
<feColorMatrix type="matrix" values="0 0 0 0 1 0 0 0 0 0.818824 0 0 0 0 0.352941 0 0 0 1 0"/>
<feBlend mode="normal" in2="BackgroundImageFix" result="effect1_dropShadow_101_22485"/>
<feBlend mode="normal" in="SourceGraphic" in2="effect1_dropShadow_101_22485" result="shape"/>
<feColorMatrix in="SourceAlpha" type="matrix" values="0 0 0 0 0 0 0 0 0 0 0 0 0 0 0 0 0 0 127 0" result="hardAlpha"/>
<feOffset/>
<feGaussianBlur stdDeviation="4"/>
<feComposite in2="hardAlpha" operator="arithmetic" k2="-1" k3="1"/>
<feColorMatrix type="matrix" values="0 0 0 0 0.956863 0 0 0 0 0.784314 0 0 0 0 0.172549 0 0 0 1 0"/>
<feBlend mode="normal" in2="shape" result="effect2_innerShadow_101_22485"/>
</filter>
<filter id="filter16_di_101_22485" x="26.3336" y="182" width="101" height="104.419" filterUnits="userSpaceOnUse" color-interpolation-filters="sRGB">
<feFlood flood-opacity="0" result="BackgroundImageFix"/>
<feColorMatrix in="SourceAlpha" type="matrix" values="0 0 0 0 0 0 0 0 0 0 0 0 0 0 0 0 0 0 127 0" result="hardAlpha"/>
<feOffset dy="4"/>
<feGaussianBlur stdDeviation="20"/>
<feComposite in2="hardAlpha" operator="out"/>
<feColorMatrix type="matrix" values="0 0 0 0 1 0 0 0 0 0.818824 0 0 0 0 0.352941 0 0 0 1 0"/>
<feBlend mode="normal" in2="BackgroundImageFix" result="effect1_dropShadow_101_22485"/>
<feBlend mode="normal" in="SourceGraphic" in2="effect1_dropShadow_101_22485" result="shape"/>
<feColorMatrix in="SourceAlpha" type="matrix" values="0 0 0 0 0 0 0 0 0 0 0 0 0 0 0 0 0 0 127 0" result="hardAlpha"/>
<feOffset/>
<feGaussianBlur stdDeviation="4"/>
<feComposite in2="hardAlpha" operator="arithmetic" k2="-1" k3="1"/>
<feColorMatrix type="matrix" values="0 0 0 0 0.956863 0 0 0 0 0.784314 0 0 0 0 0.172549 0 0 0 1 0"/>
<feBlend mode="normal" in2="shape" result="effect2_innerShadow_101_22485"/>
</filter>
<filter id="filter17_di_101_22485" x="78.3336" y="182" width="101" height="104.419" filterUnits="userSpaceOnUse" color-interpolation-filters="sRGB">
<feFlood flood-opacity="0" result="BackgroundImageFix"/>
<feColorMatrix in="SourceAlpha" type="matrix" values="0 0 0 0 0 0 0 0 0 0 0 0 0 0 0 0 0 0 127 0" result="hardAlpha"/>
<feOffset dy="4"/>
<feGaussianBlur stdDeviation="20"/>
<feComposite in2="hardAlpha" operator="out"/>
<feColorMatrix type="matrix" values="0 0 0 0 1 0 0 0 0 0.818824 0 0 0 0 0.352941 0 0 0 1 0"/>
<feBlend mode="normal" in2="BackgroundImageFix" result="effect1_dropShadow_101_22485"/>
<feBlend mode="normal" in="SourceGraphic" in2="effect1_dropShadow_101_22485" result="shape"/>
<feColorMatrix in="SourceAlpha" type="matrix" values="0 0 0 0 0 0 0 0 0 0 0 0 0 0 0 0 0 0 127 0" result="hardAlpha"/>
<feOffset/>
<feGaussianBlur stdDeviation="4"/>
<feComposite in2="hardAlpha" operator="arithmetic" k2="-1" k3="1"/>
<feColorMatrix type="matrix" values="0 0 0 0 0.956863 0 0 0 0 0.784314 0 0 0 0 0.172549 0 0 0 1 0"/>
<feBlend mode="normal" in2="shape" result="effect2_innerShadow_101_22485"/>
</filter>
<filter id="filter18_di_101_22485" x="182.334" y="182" width="101" height="104.419" filterUnits="userSpaceOnUse" color-interpolation-filters="sRGB">
<feFlood flood-opacity="0" result="BackgroundImageFix"/>
<feColorMatrix in="SourceAlpha" type="matrix" values="0 0 0 0 0 0 0 0 0 0 0 0 0 0 0 0 0 0 127 0" result="hardAlpha"/>
<feOffset dy="4"/>
<feGaussianBlur stdDeviation="20"/>
<feComposite in2="hardAlpha" operator="out"/>
<feColorMatrix type="matrix" values="0 0 0 0 1 0 0 0 0 0.818824 0 0 0 0 0.352941 0 0 0 1 0"/>
<feBlend mode="normal" in2="BackgroundImageFix" result="effect1_dropShadow_101_22485"/>
<feBlend mode="normal" in="SourceGraphic" in2="effect1_dropShadow_101_22485" result="shape"/>
<feColorMatrix in="SourceAlpha" type="matrix" values="0 0 0 0 0 0 0 0 0 0 0 0 0 0 0 0 0 0 127 0" result="hardAlpha"/>
<feOffset/>
<feGaussianBlur stdDeviation="4"/>
<feComposite in2="hardAlpha" operator="arithmetic" k2="-1" k3="1"/>
<feColorMatrix type="matrix" values="0 0 0 0 0.956863 0 0 0 0 0.784314 0 0 0 0 0.172549 0 0 0 1 0"/>
<feBlend mode="normal" in2="shape" result="effect2_innerShadow_101_22485"/>
</filter>
<filter id="filter19_di_101_22485" x="234.334" y="182" width="101" height="104.419" filterUnits="userSpaceOnUse" color-interpolation-filters="sRGB">
<feFlood flood-opacity="0" result="BackgroundImageFix"/>
<feColorMatrix in="SourceAlpha" type="matrix" values="0 0 0 0 0 0 0 0 0 0 0 0 0 0 0 0 0 0 127 0" result="hardAlpha"/>
<feOffset dy="4"/>
<feGaussianBlur stdDeviation="20"/>
<feComposite in2="hardAlpha" operator="out"/>
<feColorMatrix type="matrix" values="0 0 0 0 1 0 0 0 0 0.818824 0 0 0 0 0.352941 0 0 0 1 0"/>
<feBlend mode="normal" in2="BackgroundImageFix" result="effect1_dropShadow_101_22485"/>
<feBlend mode="normal" in="SourceGraphic" in2="effect1_dropShadow_101_22485" result="shape"/>
<feColorMatrix in="SourceAlpha" type="matrix" values="0 0 0 0 0 0 0 0 0 0 0 0 0 0 0 0 0 0 127 0" result="hardAlpha"/>
<feOffset/>
<feGaussianBlur stdDeviation="4"/>
<feComposite in2="hardAlpha" operator="arithmetic" k2="-1" k3="1"/>
<feColorMatrix type="matrix" values="0 0 0 0 0.956863 0 0 0 0 0.784314 0 0 0 0 0.172549 0 0 0 1 0"/>
<feBlend mode="normal" in2="shape" result="effect2_innerShadow_101_22485"/>
</filter>
</defs>
</svg>
