<svg width="385" height="386" viewBox="0 0 385 386" fill="none" xmlns="http://www.w3.org/2000/svg">
<rect x="121.985" y="66.7014" width="140.888" height="149.281" fill="#CF5F95"/>
<path d="M112.294 73.8597C107.531 73.8597 105.466 67.8298 109.229 64.9095L189.364 2.72671C191.168 1.32699 193.691 1.32699 195.495 2.72671L275.63 64.9095C279.393 67.8298 277.328 73.8597 272.565 73.8597H112.294Z" fill="#C2CAFF"/>
<path d="M115.029 73.8598L192.429 13.2925L269.83 73.8598H115.029Z" fill="#444B89" fill-opacity="0.43"/>
<path d="M121.985 73.8584L192.429 19.1956L262.874 73.8584V77.5339H121.985V73.8584Z" fill="#CF5F95"/>
<path d="M177.584 155.983C177.584 147.698 184.3 140.983 192.584 140.983C200.868 140.983 207.584 147.698 207.584 155.983V190.983H177.584V155.983Z" fill="#0C1648"/>
<ellipse cx="202.27" cy="169.976" rx="2.27093" ry="2.25" fill="white"/>
<circle cx="192.584" cy="64.9827" r="18" fill="#0C1648" stroke="#783582" stroke-width="4"/>
<path d="M156.084 108.483C156.084 102.684 160.785 97.9827 166.584 97.9827C172.383 97.9827 177.084 102.684 177.084 108.483V122.401H156.084V108.483Z" fill="#0C1648"/>
<path d="M152.584 123.401C152.584 122.849 153.032 122.401 153.584 122.401H179.584C180.136 122.401 180.584 122.849 180.584 123.401V126.983C180.584 127.535 180.136 127.983 179.584 127.983H153.584C153.032 127.983 152.584 127.535 152.584 126.983V123.401Z" fill="#783582"/>
<path d="M208.084 108.483C208.084 102.684 212.785 97.9827 218.584 97.9827C224.383 97.9827 229.084 102.684 229.084 108.483V122.401H208.084V108.483Z" fill="#0C1648"/>
<path d="M204.584 123.401C204.584 122.849 205.032 122.401 205.584 122.401H231.584C232.136 122.401 232.584 122.849 232.584 123.401V126.983C232.584 127.535 232.136 127.983 231.584 127.983H205.584C205.032 127.983 204.584 127.535 204.584 126.983V123.401Z" fill="#783582"/>
<g filter="url(#filter0_f_128_14081)">
<path d="M177.584 265.983C177.584 274.267 184.3 280.983 192.584 280.983C200.868 280.983 207.584 274.267 207.584 265.983V230.983H177.584V265.983Z" fill="#0C1648"/>
<ellipse rx="2.27093" ry="2.25" transform="matrix(1 0 0 -1 202.27 251.989)" fill="white"/>
<circle r="18" transform="matrix(1 0 0 -1 192.584 356.983)" fill="#0C1648" stroke="#E9E5FF" stroke-width="4"/>
<path d="M156.084 313.483C156.084 319.282 160.785 323.983 166.584 323.983C172.383 323.983 177.084 319.282 177.084 313.483V299.564H156.084V313.483Z" fill="#0C1648"/>
<path d="M208.084 313.483C208.084 319.282 212.785 323.983 218.584 323.983C224.383 323.983 229.084 319.282 229.084 313.483V299.564H208.084V313.483Z" fill="#0C1648"/>
</g>
<defs>
<filter id="filter0_f_128_14081" x="0.583954" y="218.983" width="384" height="170" filterUnits="userSpaceOnUse" color-interpolation-filters="sRGB">
<feFlood flood-opacity="0" result="BackgroundImageFix"/>
<feBlend mode="normal" in="SourceGraphic" in2="BackgroundImageFix" result="shape"/>
<feGaussianBlur stdDeviation="6" result="effect1_foregroundBlur_128_14081"/>
</filter>
</defs>
</svg>
