<svg width="385" height="528" viewBox="0 0 385 528" fill="none" xmlns="http://www.w3.org/2000/svg">
<rect x="105.774" y="93.3467" width="172.514" height="219.51" fill="#4549B0"/>
<path d="M90.6933 90.0395C85.9231 90.0395 83.8621 83.9957 87.6385 81.0812L188.976 2.87181C190.776 1.48283 193.286 1.48282 195.086 2.87181L296.424 81.0812C300.2 83.9957 298.139 90.0395 293.369 90.0395H90.6933Z" fill="#C2CAFF"/>
<path d="M97.2565 90.0395L192.031 16.2781L286.806 90.0395H97.2565Z" fill="#444B89" fill-opacity="0.43"/>
<path d="M105.774 90.0379L192.031 23.4673L278.288 90.0379V94.5141H105.774V90.0379Z" fill="#4549B0"/>
<path d="M177.031 242.505C177.031 234.221 183.747 227.505 192.031 227.505C200.315 227.505 207.031 234.221 207.031 242.505V277.505H177.031V242.505Z" fill="#0C1648"/>
<ellipse cx="201.717" cy="256.499" rx="2.27093" ry="2.25" fill="white"/>
<circle cx="192.031" cy="65.5051" r="18" fill="#0C1648" stroke="#783582" stroke-width="4"/>
<path d="M129.531 109.005C129.531 103.206 134.232 98.5051 140.031 98.5051C145.83 98.5051 150.531 103.206 150.531 109.005V122.924H129.531V109.005Z" fill="#0C1648"/>
<path d="M126.031 123.924C126.031 123.372 126.479 122.924 127.031 122.924H153.031C153.583 122.924 154.031 123.372 154.031 123.924V127.505C154.031 128.058 153.583 128.505 153.031 128.505H127.031C126.479 128.505 126.031 128.058 126.031 127.505V123.924Z" fill="#783582"/>
<path d="M181.531 109.005C181.531 103.206 186.232 98.5051 192.031 98.5051C197.83 98.5051 202.531 103.206 202.531 109.005V122.924H181.531V109.005Z" fill="#0C1648"/>
<path d="M178.031 123.924C178.031 123.372 178.479 122.924 179.031 122.924H205.031C205.583 122.924 206.031 123.372 206.031 123.924V127.505C206.031 128.058 205.583 128.505 205.031 128.505H179.031C178.479 128.505 178.031 128.058 178.031 127.505V123.924Z" fill="#783582"/>
<path d="M233.531 109.005C233.531 103.206 238.232 98.5051 244.031 98.5051C249.83 98.5051 254.531 103.206 254.531 109.005V122.924H233.531V109.005Z" fill="#0C1648"/>
<path d="M230.031 123.924C230.031 123.372 230.479 122.924 231.031 122.924H257.031C257.583 122.924 258.031 123.372 258.031 123.924V127.505C258.031 128.058 257.583 128.505 257.031 128.505H231.031C230.479 128.505 230.031 128.058 230.031 127.505V123.924Z" fill="#783582"/>
<path d="M129.531 152.005C129.531 146.206 134.232 141.505 140.031 141.505C145.83 141.505 150.531 146.206 150.531 152.005V165.924H129.531V152.005Z" fill="#0C1648"/>
<path d="M126.031 166.924C126.031 166.372 126.479 165.924 127.031 165.924H153.031C153.583 165.924 154.031 166.372 154.031 166.924V170.505C154.031 171.058 153.583 171.505 153.031 171.505H127.031C126.479 171.505 126.031 171.058 126.031 170.505V166.924Z" fill="#783582"/>
<path d="M181.531 152.005C181.531 146.206 186.232 141.505 192.031 141.505C197.83 141.505 202.531 146.206 202.531 152.005V165.924H181.531V152.005Z" fill="#0C1648"/>
<path d="M178.031 166.924C178.031 166.372 178.479 165.924 179.031 165.924H205.031C205.583 165.924 206.031 166.372 206.031 166.924V170.505C206.031 171.058 205.583 171.505 205.031 171.505H179.031C178.479 171.505 178.031 171.058 178.031 170.505V166.924Z" fill="#783582"/>
<path d="M233.531 152.005C233.531 146.206 238.232 141.505 244.031 141.505C249.83 141.505 254.531 146.206 254.531 152.005V165.924H233.531V152.005Z" fill="#0C1648"/>
<path d="M230.031 166.924C230.031 166.372 230.479 165.924 231.031 165.924H257.031C257.583 165.924 258.031 166.372 258.031 166.924V170.505C258.031 171.058 257.583 171.505 257.031 171.505H231.031C230.479 171.505 230.031 171.058 230.031 170.505V166.924Z" fill="#783582"/>
<path d="M129.531 195.005C129.531 189.206 134.232 184.505 140.031 184.505C145.83 184.505 150.531 189.206 150.531 195.005V208.924H129.531V195.005Z" fill="#0C1648"/>
<path d="M126.031 209.924C126.031 209.372 126.479 208.924 127.031 208.924H153.031C153.583 208.924 154.031 209.372 154.031 209.924V213.505C154.031 214.058 153.583 214.505 153.031 214.505H127.031C126.479 214.505 126.031 214.058 126.031 213.505V209.924Z" fill="#783582"/>
<path d="M181.531 195.005C181.531 189.206 186.232 184.505 192.031 184.505C197.83 184.505 202.531 189.206 202.531 195.005V208.924H181.531V195.005Z" fill="#0C1648"/>
<path d="M178.031 209.924C178.031 209.372 178.479 208.924 179.031 208.924H205.031C205.583 208.924 206.031 209.372 206.031 209.924V213.505C206.031 214.058 205.583 214.505 205.031 214.505H179.031C178.479 214.505 178.031 214.058 178.031 213.505V209.924Z" fill="#783582"/>
<path d="M233.531 195.005C233.531 189.206 238.232 184.505 244.031 184.505C249.83 184.505 254.531 189.206 254.531 195.005V208.924H233.531V195.005Z" fill="#0C1648"/>
<path d="M230.031 209.924C230.031 209.372 230.479 208.924 231.031 208.924H257.031C257.583 208.924 258.031 209.372 258.031 209.924V213.505C258.031 214.058 257.583 214.505 257.031 214.505H231.031C230.479 214.505 230.031 214.058 230.031 213.505V209.924Z" fill="#783582"/>
<path d="M129.476 238.005C129.476 232.206 134.177 227.505 139.976 227.505C145.775 227.505 150.476 232.206 150.476 238.005V251.924H129.476V238.005Z" fill="#0C1648"/>
<path d="M125.976 252.924C125.976 252.372 126.424 251.924 126.976 251.924H152.976C153.528 251.924 153.976 252.372 153.976 252.924V256.505C153.976 257.058 153.528 257.505 152.976 257.505H126.976C126.424 257.505 125.976 257.058 125.976 256.505V252.924Z" fill="#783582"/>
<path d="M233.476 238.005C233.476 232.206 238.177 227.505 243.976 227.505C249.775 227.505 254.476 232.206 254.476 238.005V251.924H233.476V238.005Z" fill="#0C1648"/>
<path d="M229.976 252.924C229.976 252.372 230.424 251.924 230.976 251.924H256.976C257.528 251.924 257.976 252.372 257.976 252.924V256.505C257.976 257.058 257.528 257.505 256.976 257.505H230.976C230.424 257.505 229.976 257.058 229.976 256.505V252.924Z" fill="#783582"/>
<g filter="url(#filter0_f_128_14063)">
<path d="M177.031 352.505C177.031 360.789 183.747 367.505 192.031 367.505C200.315 367.505 207.031 360.789 207.031 352.505V317.505H177.031V352.505Z" fill="#0C1648"/>
<ellipse rx="2.27093" ry="2.25" transform="matrix(1 0 0 -1 201.717 338.512)" fill="white"/>
<circle r="18" transform="matrix(1 0 0 -1 192.031 529.505)" fill="#0C1648" stroke="#E9E5FF" stroke-width="4"/>
<path d="M129.531 486.005C129.531 491.804 134.232 496.505 140.031 496.505C145.83 496.505 150.531 491.804 150.531 486.005V472.087H129.531V486.005Z" fill="#0C1648"/>
<path d="M181.531 486.005C181.531 491.804 186.232 496.505 192.031 496.505C197.83 496.505 202.531 491.804 202.531 486.005V472.087H181.531V486.005Z" fill="#0C1648"/>
<path d="M233.531 486.005C233.531 491.804 238.232 496.505 244.031 496.505C249.83 496.505 254.531 491.804 254.531 486.005V472.087H233.531V486.005Z" fill="#0C1648"/>
<path d="M129.531 443.005C129.531 448.804 134.232 453.505 140.031 453.505C145.83 453.505 150.531 448.804 150.531 443.005V429.087H129.531V443.005Z" fill="#0C1648"/>
<path d="M181.531 443.005C181.531 448.804 186.232 453.505 192.031 453.505C197.83 453.505 202.531 448.804 202.531 443.005V429.087H181.531V443.005Z" fill="#0C1648"/>
<path d="M233.531 443.005C233.531 448.804 238.232 453.505 244.031 453.505C249.83 453.505 254.531 448.804 254.531 443.005V429.087H233.531V443.005Z" fill="#0C1648"/>
<path d="M129.531 400.005C129.531 405.804 134.232 410.505 140.031 410.505C145.83 410.505 150.531 405.804 150.531 400.005V386.087H129.531V400.005Z" fill="#0C1648"/>
<path d="M181.531 400.005C181.531 405.804 186.232 410.505 192.031 410.505C197.83 410.505 202.531 405.804 202.531 400.005V386.087H181.531V400.005Z" fill="#0C1648"/>
<path d="M233.531 400.005C233.531 405.804 238.232 410.505 244.031 410.505C249.83 410.505 254.531 405.804 254.531 400.005V386.087H233.531V400.005Z" fill="#0C1648"/>
<path d="M129.476 357.005C129.476 362.804 134.177 367.505 139.976 367.505C145.775 367.505 150.476 362.804 150.476 357.005V343.087H129.476V357.005Z" fill="#0C1648"/>
<path d="M233.476 357.005C233.476 362.804 238.177 367.505 243.976 367.505C249.775 367.505 254.476 362.804 254.476 357.005V343.087H233.476V357.005Z" fill="#0C1648"/>
</g>
<defs>
<filter id="filter0_f_128_14063" x="0.0310669" y="305.505" width="384" height="256" filterUnits="userSpaceOnUse" color-interpolation-filters="sRGB">
<feFlood flood-opacity="0" result="BackgroundImageFix"/>
<feBlend mode="normal" in="SourceGraphic" in2="BackgroundImageFix" result="shape"/>
<feGaussianBlur stdDeviation="6" result="effect1_foregroundBlur_128_14063"/>
</filter>
</defs>
</svg>
