<svg width="361" height="237" viewBox="0 0 361 237" fill="none" xmlns="http://www.w3.org/2000/svg">
<rect x="67.8317" y="88.2524" width="226.15" height="148.173" fill="#4549B0"/>
<path d="M55.2062 84.8329C50.1134 84.8329 48.2806 78.1087 52.669 75.5245L178.369 1.50097C179.935 0.578885 181.878 0.578883 183.443 1.50097L309.143 75.5245C313.532 78.1087 311.699 84.8329 306.606 84.8329H55.2062Z" fill="#C2CAFF"/>
<path d="M63.2191 84.833L180.906 14.9434L298.593 84.833H63.2191Z" fill="#444B89" fill-opacity="0.43"/>
<path d="M73.7957 84.8314L180.906 21.7551L288.017 84.8314V89.0726H73.7957V84.8314Z" fill="#4549B0"/>
<path d="M165.695 194.505C165.695 186.221 172.411 179.505 180.695 179.505C188.98 179.505 195.695 186.221 195.695 194.505V229.505H165.695V194.505Z" fill="#0C1648"/>
<ellipse cx="190.382" cy="208.499" rx="2.27093" ry="2.25" fill="white"/>
<circle cx="180.695" cy="60.5051" r="18" fill="#0C1648" stroke="#783582" stroke-width="4"/>
<path d="M118.195 104.005C118.195 98.2061 122.896 93.5051 128.695 93.5051C134.494 93.5051 139.195 98.2061 139.195 104.005V117.924H118.195V104.005Z" fill="#0C1648"/>
<path d="M114.695 118.924C114.695 118.372 115.143 117.924 115.695 117.924H141.695C142.248 117.924 142.695 118.372 142.695 118.924V122.505C142.695 123.058 142.248 123.505 141.695 123.505H115.695C115.143 123.505 114.695 123.058 114.695 122.505V118.924Z" fill="#783582"/>
<path d="M170.195 104.005C170.195 98.2061 174.896 93.5051 180.695 93.5051C186.494 93.5051 191.195 98.2061 191.195 104.005V117.924H170.195V104.005Z" fill="#0C1648"/>
<path d="M166.695 118.924C166.695 118.372 167.143 117.924 167.695 117.924H193.695C194.248 117.924 194.695 118.372 194.695 118.924V122.505C194.695 123.058 194.248 123.505 193.695 123.505H167.695C167.143 123.505 166.695 123.058 166.695 122.505V118.924Z" fill="#783582"/>
<path d="M222.195 104.005C222.195 98.2061 226.896 93.5051 232.695 93.5051C238.494 93.5051 243.195 98.2061 243.195 104.005V117.924H222.195V104.005Z" fill="#0C1648"/>
<path d="M218.695 118.924C218.695 118.372 219.143 117.924 219.695 117.924H245.695C246.248 117.924 246.695 118.372 246.695 118.924V122.505C246.695 123.058 246.248 123.505 245.695 123.505H219.695C219.143 123.505 218.695 123.058 218.695 122.505V118.924Z" fill="#783582"/>
<path d="M118.195 147.005C118.195 141.206 122.896 136.505 128.695 136.505C134.494 136.505 139.195 141.206 139.195 147.005V160.924H118.195V147.005Z" fill="#0C1648"/>
<path d="M114.695 161.924C114.695 161.372 115.143 160.924 115.695 160.924H141.695C142.248 160.924 142.695 161.372 142.695 161.924V165.505C142.695 166.058 142.248 166.505 141.695 166.505H115.695C115.143 166.505 114.695 166.058 114.695 165.505V161.924Z" fill="#783582"/>
<path d="M170.195 147.005C170.195 141.206 174.896 136.505 180.695 136.505C186.494 136.505 191.195 141.206 191.195 147.005V160.924H170.195V147.005Z" fill="#0C1648"/>
<path d="M166.695 161.924C166.695 161.372 167.143 160.924 167.695 160.924H193.695C194.248 160.924 194.695 161.372 194.695 161.924V165.505C194.695 166.058 194.248 166.505 193.695 166.505H167.695C167.143 166.505 166.695 166.058 166.695 165.505V161.924Z" fill="#783582"/>
<path d="M222.195 147.005C222.195 141.206 226.896 136.505 232.695 136.505C238.494 136.505 243.195 141.206 243.195 147.005V160.924H222.195V147.005Z" fill="#0C1648"/>
<path d="M218.695 161.924C218.695 161.372 219.143 160.924 219.695 160.924H245.695C246.248 160.924 246.695 161.372 246.695 161.924V165.505C246.695 166.058 246.248 166.505 245.695 166.505H219.695C219.143 166.505 218.695 166.058 218.695 165.505V161.924Z" fill="#783582"/>
</svg>
