<svg width="361" height="200" viewBox="0 0 361 200" fill="none" xmlns="http://www.w3.org/2000/svg">
<path d="M116.125 89.2354H245.211V199.667H116.125V89.2354Z" fill="#CF5F95"/>
<path d="M105.729 90.9919C101.328 90.9919 99.0736 85.7175 102.115 82.5367L176.917 4.29444C178.886 2.2347 182.176 2.2347 184.145 4.29444L258.948 82.5367C261.989 85.7175 259.734 90.9919 255.334 90.9919H105.729Z" fill="#C2CAFF"/>
<path d="M109.859 90.9919L180.531 16.4458L251.204 90.9919H109.859Z" fill="#444B89" fill-opacity="0.43"/>
<path d="M116.21 90.9905L180.531 23.7117L244.852 90.9905V95.5143H116.21V90.9905Z" fill="#CF5F95"/>
<path d="M165.668 120.113C165.668 111.829 172.384 105.113 180.668 105.113C188.952 105.113 195.668 111.829 195.668 120.113V155.113H165.668V120.113Z" fill="#0C1648"/>
<ellipse cx="190.354" cy="134.107" rx="2.27093" ry="2.25" fill="white"/>
<circle cx="180.668" cy="72.1133" r="18" fill="#0C1648" stroke="#783582" stroke-width="4"/>
</svg>
