<svg width="361" height="253" viewBox="0 0 361 253" fill="none" xmlns="http://www.w3.org/2000/svg">
<rect x="120.672" y="88.1509" width="119.719" height="164.387" fill="#4549B0"/>
<path d="M110.804 95.7539C106.548 95.7539 104.238 90.7763 106.985 87.5262L176.712 5.03202C178.71 2.66891 182.352 2.66891 184.35 5.03202L254.077 87.5262C256.824 90.7763 254.514 95.7539 250.258 95.7539H110.804Z" fill="#C2CAFF"/>
<path d="M114.761 95.754L180.531 17.2844L246.301 95.754H114.761Z" fill="#444B89" fill-opacity="0.43"/>
<path d="M120.672 95.7522L180.531 24.9324L240.391 95.7522V100.514H120.672V95.7522Z" fill="#4549B0"/>
<path d="M165.634 166.505C165.634 158.221 172.35 151.505 180.634 151.505V151.505C188.918 151.505 195.634 158.221 195.634 166.505V201.505H165.634V166.505Z" fill="#0C1648"/>
<ellipse cx="190.32" cy="180.499" rx="2.27093" ry="2.25" fill="white"/>
<circle cx="180.634" cy="75.5051" r="18" fill="#0C1648" stroke="#783582" stroke-width="4"/>
<path d="M144.134 119.005C144.134 113.206 148.835 108.505 154.634 108.505V108.505C160.433 108.505 165.134 113.206 165.134 119.005V132.924H144.134V119.005Z" fill="#0C1648"/>
<path d="M140.634 133.924C140.634 133.372 141.082 132.924 141.634 132.924H167.634C168.186 132.924 168.634 133.372 168.634 133.924V137.505C168.634 138.058 168.186 138.505 167.634 138.505H141.634C141.082 138.505 140.634 138.058 140.634 137.505V133.924Z" fill="#783582"/>
<path d="M196.134 119.005C196.134 113.206 200.835 108.505 206.634 108.505V108.505C212.433 108.505 217.134 113.206 217.134 119.005V132.924H196.134V119.005Z" fill="#0C1648"/>
<path d="M192.634 133.924C192.634 133.372 193.082 132.924 193.634 132.924H219.634C220.186 132.924 220.634 133.372 220.634 133.924V137.505C220.634 138.058 220.186 138.505 219.634 138.505H193.634C193.082 138.505 192.634 138.058 192.634 137.505V133.924Z" fill="#783582"/>
</svg>
