<svg width="361" height="301" viewBox="0 0 361 301" fill="none" xmlns="http://www.w3.org/2000/svg">
<rect x="125.206" y="80.9565" width="110.533" height="219.418" fill="#4549B0"/>
<path d="M116.865 89.5902C112.619 89.5902 110.306 84.6321 113.033 81.3782L176.641 5.49788C178.639 3.11395 182.306 3.11395 184.304 5.49788L247.912 81.3782C250.64 84.6321 248.326 89.5902 244.08 89.5902H116.865Z" fill="#C2CAFF"/>
<path d="M119.749 89.5903L180.473 16.5391L241.196 89.5903H119.749Z" fill="#444B89" fill-opacity="0.43"/>
<path d="M125.206 89.5887L180.473 23.6589L235.739 89.5887V94.0218H125.206V89.5887Z" fill="#4549B0"/>
<path d="M165.472 254.505C165.472 246.221 172.188 239.505 180.472 239.505V239.505C188.756 239.505 195.472 246.221 195.472 254.505V289.505H165.472V254.505Z" fill="#0C1648"/>
<ellipse cx="190.158" cy="268.499" rx="2.27093" ry="2.25" fill="white"/>
<circle cx="180.472" cy="77.5051" r="18" fill="#0C1648" stroke="#783582" stroke-width="4"/>
<path d="M169.972 121.005C169.972 115.206 174.673 110.505 180.472 110.505V110.505C186.271 110.505 190.972 115.206 190.972 121.005V134.924H169.972V121.005Z" fill="#0C1648"/>
<path d="M166.472 135.924C166.472 135.372 166.92 134.924 167.472 134.924H193.472C194.024 134.924 194.472 135.372 194.472 135.924V139.505C194.472 140.058 194.024 140.505 193.472 140.505H167.472C166.92 140.505 166.472 140.058 166.472 139.505V135.924Z" fill="#783582"/>
<path d="M169.972 164.005C169.972 158.206 174.673 153.505 180.472 153.505V153.505C186.271 153.505 190.972 158.206 190.972 164.005V177.924H169.972V164.005Z" fill="#0C1648"/>
<path d="M166.472 178.924C166.472 178.372 166.92 177.924 167.472 177.924H193.472C194.024 177.924 194.472 178.372 194.472 178.924V182.505C194.472 183.058 194.024 183.505 193.472 183.505H167.472C166.92 183.505 166.472 183.058 166.472 182.505V178.924Z" fill="#783582"/>
<path d="M169.972 207.005C169.972 201.206 174.673 196.505 180.472 196.505V196.505C186.271 196.505 190.972 201.206 190.972 207.005V220.924H169.972V207.005Z" fill="#0C1648"/>
<path d="M166.472 221.924C166.472 221.372 166.92 220.924 167.472 220.924H193.472C194.024 220.924 194.472 221.372 194.472 221.924V225.505C194.472 226.058 194.024 226.505 193.472 226.505H167.472C166.92 226.505 166.472 226.058 166.472 225.505V221.924Z" fill="#783582"/>
</svg>
