<svg width="361" height="316" viewBox="0 0 361 316" fill="none" xmlns="http://www.w3.org/2000/svg">
<rect x="78.8894" y="73.2148" width="203.612" height="242.428" fill="#D39D8C"/>
<path d="M61.4858 85.31C56.4601 85.31 54.5754 78.7277 58.8394 76.0677L177.357 2.13474C178.976 1.1244 181.03 1.12441 182.649 2.13474L301.167 76.0677C305.431 78.7277 303.546 85.31 298.52 85.31H61.4858Z" fill="#C2CAFF"/>
<path d="M68.905 85.31L180.003 15.4204L291.101 85.31H68.905Z" fill="#444B89" fill-opacity="0.43"/>
<path d="M78.8894 85.3085L180.003 22.2322L281.117 85.3085V89.5497H78.8894V85.3085Z" fill="#D39D8C"/>
<path d="M165.695 202.505C165.695 194.221 172.411 187.505 180.695 187.505C188.98 187.505 195.695 194.221 195.695 202.505V237.505H165.695V202.505Z" fill="#0C1648"/>
<ellipse cx="190.382" cy="216.498" rx="2.27093" ry="2.25" fill="white"/>
<circle cx="180.695" cy="68.5049" r="18" fill="#0C1648" stroke="#783582" stroke-width="4"/>
<path d="M118.195 112.005C118.195 106.206 122.896 101.505 128.695 101.505C134.494 101.505 139.195 106.206 139.195 112.005V125.923H118.195V112.005Z" fill="#0C1648"/>
<path d="M114.695 126.924C114.695 126.371 115.143 125.924 115.695 125.924H141.695C142.248 125.924 142.695 126.371 142.695 126.924V130.505C142.695 131.057 142.248 131.505 141.695 131.505H115.695C115.143 131.505 114.695 131.057 114.695 130.505V126.924Z" fill="#783582"/>
<path d="M170.195 112.005C170.195 106.206 174.896 101.505 180.695 101.505C186.494 101.505 191.195 106.206 191.195 112.005V125.923H170.195V112.005Z" fill="#0C1648"/>
<path d="M166.695 126.924C166.695 126.371 167.143 125.924 167.695 125.924H193.695C194.248 125.924 194.695 126.371 194.695 126.924V130.505C194.695 131.057 194.248 131.505 193.695 131.505H167.695C167.143 131.505 166.695 131.057 166.695 130.505V126.924Z" fill="#783582"/>
<path d="M222.195 112.005C222.195 106.206 226.896 101.505 232.695 101.505C238.494 101.505 243.195 106.206 243.195 112.005V125.923H222.195V112.005Z" fill="#0C1648"/>
<path d="M218.695 126.924C218.695 126.371 219.143 125.924 219.695 125.924H245.695C246.248 125.924 246.695 126.371 246.695 126.924V130.505C246.695 131.057 246.248 131.505 245.695 131.505H219.695C219.143 131.505 218.695 131.057 218.695 130.505V126.924Z" fill="#783582"/>
<path d="M118.195 155.005C118.195 149.206 122.896 144.505 128.695 144.505C134.494 144.505 139.195 149.206 139.195 155.005V168.923H118.195V155.005Z" fill="#0C1648"/>
<path d="M114.695 169.924C114.695 169.371 115.143 168.924 115.695 168.924H141.695C142.248 168.924 142.695 169.371 142.695 169.924V173.505C142.695 174.057 142.248 174.505 141.695 174.505H115.695C115.143 174.505 114.695 174.057 114.695 173.505V169.924Z" fill="#783582"/>
<path d="M170.195 155.005C170.195 149.206 174.896 144.505 180.695 144.505C186.494 144.505 191.195 149.206 191.195 155.005V168.923H170.195V155.005Z" fill="#0C1648"/>
<path d="M166.695 169.924C166.695 169.371 167.143 168.924 167.695 168.924H193.695C194.248 168.924 194.695 169.371 194.695 169.924V173.505C194.695 174.057 194.248 174.505 193.695 174.505H167.695C167.143 174.505 166.695 174.057 166.695 173.505V169.924Z" fill="#783582"/>
<path d="M222.195 155.005C222.195 149.206 226.896 144.505 232.695 144.505C238.494 144.505 243.195 149.206 243.195 155.005V168.923H222.195V155.005Z" fill="#0C1648"/>
<path d="M218.695 169.924C218.695 169.371 219.143 168.924 219.695 168.924H245.695C246.248 168.924 246.695 169.371 246.695 169.924V173.505C246.695 174.057 246.248 174.505 245.695 174.505H219.695C219.143 174.505 218.695 174.057 218.695 173.505V169.924Z" fill="#783582"/>
</svg>
