<svg width="361" height="256" viewBox="0 0 361 256" fill="none" xmlns="http://www.w3.org/2000/svg">
<rect x="91.8105" y="64.3604" width="177.441" height="190.861" fill="#CF5F95"/>
<path d="M77.17 82.4203C72.2561 82.4203 70.29 76.0742 74.3432 73.2961L177.704 2.45165C179.408 1.28396 181.654 1.28397 183.358 2.45166L286.719 73.2961C290.772 76.0742 288.806 82.4203 283.892 82.4203H77.17Z" fill="#C2CAFF"/>
<path d="M82.8969 82.4203L180.531 14.9365L278.165 82.4203H82.8969Z" fill="#444B89" fill-opacity="0.43"/>
<path d="M91.6714 82.419L180.531 21.5139L269.391 82.419V86.5142H91.6714V82.419Z" fill="#CF5F95"/>
<path d="M165.531 170.505C165.531 162.221 172.247 155.505 180.531 155.505C188.815 155.505 195.531 162.221 195.531 170.505V205.505H165.531V170.505Z" fill="#0C1648"/>
<ellipse cx="190.217" cy="184.499" rx="2.27093" ry="2.25" fill="white"/>
<circle cx="180.531" cy="79.5051" r="18" fill="#0C1648" stroke="#783582" stroke-width="4"/>
<path d="M118.031 123.005C118.031 117.206 122.732 112.505 128.531 112.505C134.33 112.505 139.031 117.206 139.031 123.005V136.924H118.031V123.005Z" fill="#0C1648"/>
<path d="M114.531 137.924C114.531 137.372 114.979 136.924 115.531 136.924H141.531C142.083 136.924 142.531 137.372 142.531 137.924V141.505C142.531 142.058 142.083 142.505 141.531 142.505H115.531C114.979 142.505 114.531 142.058 114.531 141.505V137.924Z" fill="#783582"/>
<path d="M170.031 123.005C170.031 117.206 174.732 112.505 180.531 112.505C186.33 112.505 191.031 117.206 191.031 123.005V136.924H170.031V123.005Z" fill="#0C1648"/>
<path d="M166.531 137.924C166.531 137.372 166.979 136.924 167.531 136.924H193.531C194.083 136.924 194.531 137.372 194.531 137.924V141.505C194.531 142.058 194.083 142.505 193.531 142.505H167.531C166.979 142.505 166.531 142.058 166.531 141.505V137.924Z" fill="#783582"/>
<path d="M222.031 123.005C222.031 117.206 226.732 112.505 232.531 112.505C238.33 112.505 243.031 117.206 243.031 123.005V136.924H222.031V123.005Z" fill="#0C1648"/>
<path d="M218.531 137.924C218.531 137.372 218.979 136.924 219.531 136.924H245.531C246.083 136.924 246.531 137.372 246.531 137.924V141.505C246.531 142.058 246.083 142.505 245.531 142.505H219.531C218.979 142.505 218.531 142.058 218.531 141.505V137.924Z" fill="#783582"/>
<path d="M117.976 166.005C117.976 160.206 122.677 155.505 128.476 155.505C134.275 155.505 138.976 160.206 138.976 166.005V179.924H117.976V166.005Z" fill="#0C1648"/>
<path d="M114.476 180.924C114.476 180.372 114.924 179.924 115.476 179.924H141.476C142.028 179.924 142.476 180.372 142.476 180.924V184.505C142.476 185.058 142.028 185.505 141.476 185.505H115.476C114.924 185.505 114.476 185.058 114.476 184.505V180.924Z" fill="#783582"/>
<path d="M221.976 166.005C221.976 160.206 226.677 155.505 232.476 155.505C238.275 155.505 242.976 160.206 242.976 166.005V179.924H221.976V166.005Z" fill="#0C1648"/>
<path d="M218.476 180.924C218.476 180.372 218.924 179.924 219.476 179.924H245.476C246.028 179.924 246.476 180.372 246.476 180.924V184.505C246.476 185.058 246.028 185.505 245.476 185.505H219.476C218.924 185.505 218.476 185.058 218.476 184.505V180.924Z" fill="#783582"/>
</svg>
