<svg width="361" height="255" viewBox="0 0 361 255" fill="none" xmlns="http://www.w3.org/2000/svg">
<rect x="115.908" y="89.0872" width="130.129" height="165.622" fill="#CF5F95"/>
<path d="M235.35 23.6855H217.24V40.4685L235.35 55.6427V23.6855Z" fill="#9DADE5"/>
<rect width="22.8761" height="8.47666" rx="1" transform="matrix(-1 0 0 1 237.907 20.4668)" fill="#C2CAFF"/>
<path d="M105.441 89.0871C101.001 89.0871 98.7635 83.7317 101.884 80.5732L177.416 4.11479C179.373 2.13335 182.573 2.13335 184.53 4.11479L260.062 80.5732C263.182 83.7317 260.945 89.0871 256.505 89.0871H105.441Z" fill="#C2CAFF"/>
<path d="M109.484 89.087L180.973 16.1104L252.462 89.087H109.484Z" fill="#444B89" fill-opacity="0.43"/>
<path d="M115.908 89.0856L180.973 23.2231L246.038 89.0856V93.5141H115.908V89.0856Z" fill="#CF5F95"/>
<path d="M165.973 206.505C165.973 198.221 172.689 191.505 180.973 191.505C189.257 191.505 195.973 198.221 195.973 206.505V241.505H165.973V206.505Z" fill="#0C1648"/>
<ellipse cx="190.659" cy="220.499" rx="2.27093" ry="2.25" fill="white"/>
<circle cx="180.973" cy="72.5051" r="18" fill="#0C1648" stroke="#783582" stroke-width="4"/>
<path d="M144.473 116.005C144.473 110.206 149.174 105.505 154.973 105.505C160.772 105.505 165.473 110.206 165.473 116.005V129.924H144.473V116.005Z" fill="#0C1648"/>
<path d="M140.973 130.924C140.973 130.372 141.421 129.924 141.973 129.924H167.973C168.525 129.924 168.973 130.372 168.973 130.924V134.505C168.973 135.058 168.525 135.505 167.973 135.505H141.973C141.421 135.505 140.973 135.058 140.973 134.505V130.924Z" fill="#783582"/>
<path d="M196.473 116.005C196.473 110.206 201.174 105.505 206.973 105.505C212.772 105.505 217.473 110.206 217.473 116.005V129.924H196.473V116.005Z" fill="#0C1648"/>
<path d="M192.973 130.924C192.973 130.372 193.421 129.924 193.973 129.924H219.973C220.525 129.924 220.973 130.372 220.973 130.924V134.505C220.973 135.058 220.525 135.505 219.973 135.505H193.973C193.421 135.505 192.973 135.058 192.973 134.505V130.924Z" fill="#783582"/>
<path d="M144.473 159.005C144.473 153.206 149.174 148.505 154.973 148.505C160.772 148.505 165.473 153.206 165.473 159.005V172.924H144.473V159.005Z" fill="#0C1648"/>
<path d="M140.973 173.924C140.973 173.372 141.421 172.924 141.973 172.924H167.973C168.525 172.924 168.973 173.372 168.973 173.924V177.505C168.973 178.058 168.525 178.505 167.973 178.505H141.973C141.421 178.505 140.973 178.058 140.973 177.505V173.924Z" fill="#783582"/>
<path d="M196.473 159.005C196.473 153.206 201.174 148.505 206.973 148.505C212.772 148.505 217.473 153.206 217.473 159.005V172.924H196.473V159.005Z" fill="#0C1648"/>
<path d="M192.973 173.924C192.973 173.372 193.421 172.924 193.973 172.924H219.973C220.525 172.924 220.973 173.372 220.973 173.924V177.505C220.973 178.058 220.525 178.505 219.973 178.505H193.973C193.421 178.505 192.973 178.058 192.973 177.505V173.924Z" fill="#783582"/>
</svg>
