<svg width="361" height="200" viewBox="0 0 361 200" fill="none" xmlns="http://www.w3.org/2000/svg">
<path d="M111.031 89.5142H249.031V199.514H111.031V89.5142Z" fill="#D39D8C"/>
<path d="M99.2934 90.9919C94.8121 90.9919 92.5936 85.551 95.7971 82.4175L176.035 3.93397C177.978 2.03315 181.084 2.03316 183.027 3.93397L263.265 82.4175C266.469 85.551 264.25 90.9919 259.769 90.9919H99.2934Z" fill="#C2CAFF"/>
<path d="M103.957 90.9919L179.531 16.4458L255.106 90.9919H103.957Z" fill="#444B89" fill-opacity="0.43"/>
<path d="M110.748 90.9905L179.531 23.7117L248.314 90.9905V95.5143H110.748V90.9905Z" fill="#D39D8C"/>
<path d="M165.031 120.113C165.031 111.829 171.747 105.113 180.031 105.113C188.315 105.113 195.031 111.829 195.031 120.113V155.113H165.031V120.113Z" fill="#0C1648"/>
<ellipse cx="189.717" cy="134.107" rx="2.27093" ry="2.25" fill="white"/>
<circle cx="180.031" cy="72.1133" r="18" fill="#0C1648" stroke="#783582" stroke-width="4"/>
</svg>
