<svg width="385" height="536" viewBox="0 0 385 536" fill="none" xmlns="http://www.w3.org/2000/svg">
<path d="M133.437 219.464H251.736V359.505H133.437V219.464Z" fill="#A2B5FC"/>
<g filter="url(#filter0_f_128_14086)">
<circle cx="162.502" cy="53.3002" r="6.3334" fill="#CFD2FE"/>
<circle cx="162.502" cy="40.5747" r="2.92233" fill="#CFD2FE"/>
<circle cx="161.426" cy="18.538" r="0.05" fill="#CFD2FE"/>
<circle cx="161.7" cy="15.7182" r="0.05" fill="#CFD2FE"/>
<circle r="0.05" transform="matrix(1 0 0 -1 161.295 19.6949)" fill="#CFD2FE"/>
</g>
<path d="M153.557 152.219H171.667V169.002L153.557 184.176V152.219Z" fill="#9DADE5"/>
<rect x="151" y="149" width="22.8761" height="8.47666" rx="1" fill="#C2CAFF"/>
<path d="M124.504 225.341C120.127 225.341 117.863 220.114 120.857 216.921L188.939 144.301C190.915 142.194 194.259 142.194 196.235 144.301L264.318 216.921C267.311 220.114 265.047 225.341 260.67 225.341H124.504Z" fill="#C2CAFF"/>
<path d="M127.532 225.341L192.587 155.365L257.642 225.341H127.532Z" fill="#444B89" fill-opacity="0.43"/>
<path d="M133.379 225.339L192.587 162.185L251.795 225.339V229.586H133.379V225.339Z" fill="#A2B5FC"/>
<path d="M177.113 302.113C177.113 293.829 183.828 287.113 192.113 287.113C200.397 287.113 207.113 293.829 207.113 302.113V337.113H177.113V302.113Z" fill="#0C1648"/>
<ellipse cx="201.799" cy="316.106" rx="2.27093" ry="2.25" fill="white"/>
<circle cx="192.113" cy="211.113" r="18" fill="#0C1648" stroke="#783582" stroke-width="4"/>
<path d="M155.613 254.613C155.613 248.814 160.314 244.113 166.113 244.113C171.912 244.113 176.613 248.814 176.613 254.613V268.532H155.613V254.613Z" fill="#0C1648"/>
<path d="M152.113 269.532C152.113 268.979 152.56 268.532 153.113 268.532H179.113C179.665 268.532 180.113 268.979 180.113 269.532V273.113C180.113 273.665 179.665 274.113 179.113 274.113H153.113C152.56 274.113 152.113 273.665 152.113 273.113V269.532Z" fill="#783582"/>
<path d="M207.613 254.613C207.613 248.814 212.314 244.113 218.113 244.113C223.912 244.113 228.613 248.814 228.613 254.613V268.532H207.613V254.613Z" fill="#0C1648"/>
<path d="M204.113 269.532C204.113 268.979 204.56 268.532 205.113 268.532H231.113C231.665 268.532 232.113 268.979 232.113 269.532V273.113C232.113 273.665 231.665 274.113 231.113 274.113H205.113C204.56 274.113 204.113 273.665 204.113 273.113V269.532Z" fill="#783582"/>
<g filter="url(#filter1_f_128_14086)">
<path d="M177.113 412.113C177.113 420.397 183.828 427.113 192.113 427.113C200.397 427.113 207.113 420.397 207.113 412.113V377.113H177.113V412.113Z" fill="#0C1648"/>
<ellipse rx="2.27093" ry="2.25" transform="matrix(1 0 0 -1 201.799 398.12)" fill="white"/>
<circle r="18" transform="matrix(1 0 0 -1 192.113 503.113)" fill="#0C1648" stroke="#E9E5FF" stroke-width="4"/>
<path d="M155.613 459.613C155.613 465.412 160.314 470.113 166.113 470.113C171.912 470.113 176.613 465.412 176.613 459.613V445.694H155.613V459.613Z" fill="#0C1648"/>
<path d="M207.613 459.613C207.613 465.412 212.314 470.113 218.113 470.113C223.912 470.113 228.613 465.412 228.613 459.613V445.694H207.613V459.613Z" fill="#0C1648"/>
</g>
<defs>
<filter id="filter0_f_128_14086" x="133" y="0.668213" width="59" height="198.332" filterUnits="userSpaceOnUse" color-interpolation-filters="sRGB">
<feFlood flood-opacity="0" result="BackgroundImageFix"/>
<feBlend mode="normal" in="SourceGraphic" in2="BackgroundImageFix" result="shape"/>
<feGaussianBlur stdDeviation="7.5" result="effect1_foregroundBlur_128_14086"/>
</filter>
<filter id="filter1_f_128_14086" x="0.112518" y="365.113" width="384" height="170" filterUnits="userSpaceOnUse" color-interpolation-filters="sRGB">
<feFlood flood-opacity="0" result="BackgroundImageFix"/>
<feBlend mode="normal" in="SourceGraphic" in2="BackgroundImageFix" result="shape"/>
<feGaussianBlur stdDeviation="6" result="effect1_foregroundBlur_128_14086"/>
</filter>
</defs>
</svg>
