<svg width="361" height="246" viewBox="0 0 361 246" fill="none" xmlns="http://www.w3.org/2000/svg">
<rect x="101.997" y="77.2444" width="157.917" height="167.869" fill="#4549B0"/>
<path d="M88.5607 89.2826C83.8867 89.2826 81.7683 83.4404 85.356 80.4446L177.752 3.29502C179.607 1.74565 182.306 1.74565 184.161 3.29501L276.557 80.4446C280.145 83.4404 278.026 89.2826 273.352 89.2826H88.5607Z" fill="#C2CAFF"/>
<path d="M94.201 89.2827L180.957 16.2314L267.712 89.2827H94.201Z" fill="#444B89" fill-opacity="0.43"/>
<path d="M101.998 89.2811L180.956 23.3513L259.915 89.2811V93.7141H101.998V89.2811Z" fill="#4549B0"/>
<path d="M165.956 166.225C165.956 157.941 172.672 151.225 180.956 151.225V151.225C189.24 151.225 195.956 157.941 195.956 166.225V201.225H165.956V166.225Z" fill="#0C1648"/>
<ellipse cx="190.642" cy="180.218" rx="2.27093" ry="2.25" fill="white"/>
<circle cx="180.956" cy="75.2249" r="18" fill="#0C1648" stroke="#783582" stroke-width="4"/>
<path d="M144.456 118.725C144.456 112.926 149.157 108.225 154.956 108.225V108.225C160.755 108.225 165.456 112.926 165.456 118.725V132.643H144.456V118.725Z" fill="#0C1648"/>
<path d="M140.956 133.644C140.956 133.091 141.404 132.644 141.956 132.644H167.956C168.508 132.644 168.956 133.091 168.956 133.644V137.225C168.956 137.777 168.508 138.225 167.956 138.225H141.956C141.404 138.225 140.956 137.777 140.956 137.225V133.644Z" fill="#783582"/>
<path d="M196.456 118.725C196.456 112.926 201.157 108.225 206.956 108.225V108.225C212.755 108.225 217.456 112.926 217.456 118.725V132.643H196.456V118.725Z" fill="#0C1648"/>
<path d="M192.956 133.644C192.956 133.091 193.404 132.644 193.956 132.644H219.956C220.508 132.644 220.956 133.091 220.956 133.644V137.225C220.956 137.777 220.508 138.225 219.956 138.225H193.956C193.404 138.225 192.956 137.777 192.956 137.225V133.644Z" fill="#783582"/>
</svg>
