<svg width="385" height="389" viewBox="0 0 385 389" fill="none" xmlns="http://www.w3.org/2000/svg">
<rect x="41.4669" y="63.4624" width="273.076" height="144.77" fill="#D39D8C"/>
<path d="M25.6865 86.4602C20.3038 86.4602 18.7219 79.1219 23.6265 76.9043L190.165 1.60306C191.475 1.01097 192.976 1.01096 194.285 1.60306L360.824 76.9043C365.729 79.1219 364.147 86.4602 358.764 86.4602H25.6865Z" fill="#C2CAFF"/>
<path d="M37.2092 86.4602L192.225 15.7776L347.242 86.4602H37.2092Z" fill="#444B89" fill-opacity="0.43"/>
<path d="M51.1406 86.4588L192.225 22.6667L333.31 86.4588V90.7481H51.1406V86.4588Z" fill="#D39D8C"/>
<path d="M177.005 159.393C177.005 151.108 183.721 144.393 192.005 144.393C200.289 144.393 207.005 151.108 207.005 159.393V194.393H177.005V159.393Z" fill="#0C1648"/>
<ellipse cx="201.691" cy="173.386" rx="2.27093" ry="2.25" fill="white"/>
<circle cx="192.005" cy="68.3926" r="18" fill="#0C1648" stroke="#783582" stroke-width="4"/>
<path d="M129.505 111.893C129.505 106.094 134.206 101.393 140.005 101.393C145.804 101.393 150.505 106.094 150.505 111.893V125.811H129.505V111.893Z" fill="#0C1648"/>
<path d="M126.005 126.811C126.005 126.259 126.453 125.811 127.005 125.811H153.005C153.557 125.811 154.005 126.259 154.005 126.811V130.393C154.005 130.945 153.557 131.393 153.005 131.393H127.005C126.453 131.393 126.005 130.945 126.005 130.393V126.811Z" fill="#783582"/>
<path d="M181.505 111.893C181.505 106.094 186.206 101.393 192.005 101.393C197.804 101.393 202.505 106.094 202.505 111.893V125.811H181.505V111.893Z" fill="#0C1648"/>
<path d="M178.005 126.811C178.005 126.259 178.453 125.811 179.005 125.811H205.005C205.557 125.811 206.005 126.259 206.005 126.811V130.393C206.005 130.945 205.557 131.393 205.005 131.393H179.005C178.453 131.393 178.005 130.945 178.005 130.393V126.811Z" fill="#783582"/>
<path d="M233.505 111.893C233.505 106.094 238.206 101.393 244.005 101.393C249.804 101.393 254.505 106.094 254.505 111.893V125.811H233.505V111.893Z" fill="#0C1648"/>
<path d="M230.005 126.811C230.005 126.259 230.453 125.811 231.005 125.811H257.005C257.557 125.811 258.005 126.259 258.005 126.811V130.393C258.005 130.945 257.557 131.393 257.005 131.393H231.005C230.453 131.393 230.005 130.945 230.005 130.393V126.811Z" fill="#783582"/>
<path d="M129.45 154.893C129.45 149.094 134.151 144.393 139.95 144.393C145.749 144.393 150.45 149.094 150.45 154.893V168.811H129.45V154.893Z" fill="#0C1648"/>
<path d="M125.95 169.811C125.95 169.259 126.398 168.811 126.95 168.811H152.95C153.502 168.811 153.95 169.259 153.95 169.811V173.393C153.95 173.945 153.502 174.393 152.95 174.393H126.95C126.398 174.393 125.95 173.945 125.95 173.393V169.811Z" fill="#783582"/>
<path d="M233.45 154.893C233.45 149.094 238.151 144.393 243.95 144.393C249.749 144.393 254.45 149.094 254.45 154.893V168.811H233.45V154.893Z" fill="#0C1648"/>
<path d="M229.95 169.811C229.95 169.259 230.398 168.811 230.95 168.811H256.95C257.502 168.811 257.95 169.259 257.95 169.811V173.393C257.95 173.945 257.502 174.393 256.95 174.393H230.95C230.398 174.393 229.95 173.945 229.95 173.393V169.811Z" fill="#783582"/>
<g filter="url(#filter0_f_128_14077)">
<path d="M177.005 269.393C177.005 277.677 183.721 284.393 192.005 284.393C200.289 284.393 207.005 277.677 207.005 269.393V234.393H177.005V269.393Z" fill="#0C1648"/>
<ellipse rx="2.27093" ry="2.25" transform="matrix(1 0 0 -1 201.691 255.399)" fill="white"/>
<circle r="18" transform="matrix(1 0 0 -1 192.005 360.393)" fill="#0C1648" stroke="#E9E5FF" stroke-width="4"/>
<path d="M129.505 316.893C129.505 322.692 134.206 327.393 140.005 327.393C145.804 327.393 150.505 322.692 150.505 316.893V302.974H129.505V316.893Z" fill="#0C1648"/>
<path d="M181.505 316.893C181.505 322.692 186.206 327.393 192.005 327.393C197.804 327.393 202.505 322.692 202.505 316.893V302.974H181.505V316.893Z" fill="#0C1648"/>
<path d="M233.505 316.893C233.505 322.692 238.206 327.393 244.005 327.393C249.804 327.393 254.505 322.692 254.505 316.893V302.974H233.505V316.893Z" fill="#0C1648"/>
<path d="M129.45 273.893C129.45 279.692 134.151 284.393 139.95 284.393C145.749 284.393 150.45 279.692 150.45 273.893V259.974H129.45V273.893Z" fill="#0C1648"/>
<path d="M233.45 273.893C233.45 279.692 238.151 284.393 243.95 284.393C249.749 284.393 254.45 279.692 254.45 273.893V259.974H233.45V273.893Z" fill="#0C1648"/>
</g>
<defs>
<filter id="filter0_f_128_14077" x="0.00497437" y="222.393" width="384" height="170" filterUnits="userSpaceOnUse" color-interpolation-filters="sRGB">
<feFlood flood-opacity="0" result="BackgroundImageFix"/>
<feBlend mode="normal" in="SourceGraphic" in2="BackgroundImageFix" result="shape"/>
<feGaussianBlur stdDeviation="6" result="effect1_foregroundBlur_128_14077"/>
</filter>
</defs>
</svg>
