<svg width="361" height="204" viewBox="0 0 361 204" fill="none" xmlns="http://www.w3.org/2000/svg">
<rect x="111.005" y="90.561" width="139.052" height="113.147" fill="#4549B0"/>
<path d="M99.3882 90.9916C94.894 90.9916 92.6816 85.5238 95.9112 82.3985L177.054 3.87851C178.993 2.00269 182.07 2.00268 184.008 3.87851L265.151 82.3985C268.381 85.5238 266.168 90.9916 261.674 90.9916H99.3882Z" fill="#C2CAFF"/>
<path d="M104.14 90.9916L180.531 16.4456L256.923 90.9916H104.14Z" fill="#444B89" fill-opacity="0.43"/>
<path d="M111.005 90.9903L180.531 23.7114L250.057 90.9903V95.514H111.005V90.9903Z" fill="#4549B0"/>
<path d="M165.531 160.113C165.531 151.829 172.247 145.113 180.531 145.113C188.815 145.113 195.531 151.829 195.531 160.113V195.113H165.531V160.113Z" fill="#0C1648"/>
<ellipse cx="190.217" cy="174.106" rx="2.27093" ry="2.25" fill="white"/>
<circle cx="180.531" cy="112.113" r="18" fill="#0C1648" stroke="#783582" stroke-width="4"/>
</svg>
