<svg width="385" height="380" viewBox="0 0 385 380" fill="none" xmlns="http://www.w3.org/2000/svg">
<rect x="111.658" y="51.3857" width="161.851" height="162.398" fill="#A2B5FC"/>
<path d="M74.3533 58.0753C68.8475 58.0753 67.3848 50.4763 72.4973 48.4325L190.299 1.33891C191.49 0.86258 192.82 0.862579 194.011 1.33891L311.813 48.4325C316.925 50.4763 315.463 58.0753 309.957 58.0753H74.3533Z" fill="#C2CAFF"/>
<path d="M74.6848 58.0754L192.155 10.718L309.625 58.0754H74.6848Z" fill="#444B89" fill-opacity="0.43"/>
<path d="M85.2419 58.0744L192.155 15.3337L299.068 58.0744V60.9482H85.2419V58.0744Z" fill="#A2B5FC"/>
<path d="M177.112 146.113C177.112 137.828 183.828 131.113 192.112 131.113C200.397 131.113 207.112 137.828 207.112 146.113V181.113H177.112V146.113Z" fill="#0C1648"/>
<ellipse cx="201.799" cy="160.106" rx="2.27093" ry="2.25" fill="white"/>
<circle cx="192.112" cy="55.1125" r="18" fill="#0C1648" stroke="#783582" stroke-width="4"/>
<path d="M129.612 98.6126C129.612 92.8136 134.313 88.1125 140.112 88.1125C145.911 88.1125 150.612 92.8136 150.612 98.6125V112.531H129.612V98.6126Z" fill="#0C1648"/>
<path d="M126.112 113.531C126.112 112.979 126.56 112.531 127.112 112.531H153.112C153.665 112.531 154.112 112.979 154.112 113.531V117.113C154.112 117.665 153.665 118.113 153.112 118.113H127.112C126.56 118.113 126.112 117.665 126.112 117.113V113.531Z" fill="#783582"/>
<path d="M181.612 98.6126C181.612 92.8136 186.313 88.1125 192.112 88.1125C197.911 88.1125 202.612 92.8136 202.612 98.6125V112.531H181.612V98.6126Z" fill="#0C1648"/>
<path d="M178.112 113.531C178.112 112.979 178.56 112.531 179.112 112.531H205.112C205.665 112.531 206.112 112.979 206.112 113.531V117.113C206.112 117.665 205.665 118.113 205.112 118.113H179.112C178.56 118.113 178.112 117.665 178.112 117.113V113.531Z" fill="#783582"/>
<path d="M233.612 98.6126C233.612 92.8136 238.313 88.1125 244.112 88.1125C249.911 88.1125 254.612 92.8136 254.612 98.6125V112.531H233.612V98.6126Z" fill="#0C1648"/>
<path d="M230.112 113.531C230.112 112.979 230.56 112.531 231.112 112.531H257.112C257.665 112.531 258.112 112.979 258.112 113.531V117.113C258.112 117.665 257.665 118.113 257.112 118.113H231.112C230.56 118.113 230.112 117.665 230.112 117.113V113.531Z" fill="#783582"/>
<path d="M129.557 141.613C129.557 135.814 134.258 131.113 140.057 131.113C145.856 131.113 150.557 135.814 150.557 141.613V155.531H129.557V141.613Z" fill="#0C1648"/>
<path d="M126.057 156.531C126.057 155.979 126.505 155.531 127.057 155.531H153.057C153.61 155.531 154.057 155.979 154.057 156.531V160.113C154.057 160.665 153.61 161.113 153.057 161.113H127.057C126.505 161.113 126.057 160.665 126.057 160.113V156.531Z" fill="#783582"/>
<path d="M233.557 141.613C233.557 135.814 238.258 131.113 244.057 131.113C249.856 131.113 254.557 135.814 254.557 141.613V155.531H233.557V141.613Z" fill="#0C1648"/>
<path d="M230.057 156.531C230.057 155.979 230.505 155.531 231.057 155.531H257.057C257.61 155.531 258.057 155.979 258.057 156.531V160.113C258.057 160.665 257.61 161.113 257.057 161.113H231.057C230.505 161.113 230.057 160.665 230.057 160.113V156.531Z" fill="#783582"/>
<g filter="url(#filter0_f_128_14059)">
<path d="M177.112 256.113C177.112 264.397 183.828 271.113 192.112 271.113C200.397 271.113 207.112 264.397 207.112 256.113V221.113H177.112V256.113Z" fill="#0C1648"/>
<ellipse rx="2.27093" ry="2.25" transform="matrix(1 0 0 -1 201.799 242.119)" fill="white"/>
<circle r="18" transform="matrix(1 0 0 -1 192.112 347.113)" fill="#0C1648" stroke="#E9E5FF" stroke-width="4"/>
<path d="M129.612 303.613C129.612 309.412 134.313 314.113 140.112 314.113C145.911 314.113 150.612 309.412 150.612 303.613V289.694H129.612V303.613Z" fill="#0C1648"/>
<path d="M181.612 303.613C181.612 309.412 186.313 314.113 192.112 314.113C197.911 314.113 202.612 309.412 202.612 303.613V289.694H181.612V303.613Z" fill="#0C1648"/>
<path d="M233.612 303.613C233.612 309.412 238.313 314.113 244.112 314.113C249.911 314.113 254.612 309.412 254.612 303.613V289.694H233.612V303.613Z" fill="#0C1648"/>
<path d="M129.557 260.613C129.557 266.412 134.258 271.113 140.057 271.113C145.856 271.113 150.557 266.412 150.557 260.613V246.694H129.557V260.613Z" fill="#0C1648"/>
<path d="M233.557 260.613C233.557 266.412 238.258 271.113 244.057 271.113C249.856 271.113 254.557 266.412 254.557 260.613V246.694H233.557V260.613Z" fill="#0C1648"/>
</g>
<defs>
<filter id="filter0_f_128_14059" x="0.112457" y="209.113" width="384" height="170" filterUnits="userSpaceOnUse" color-interpolation-filters="sRGB">
<feFlood flood-opacity="0" result="BackgroundImageFix"/>
<feBlend mode="normal" in="SourceGraphic" in2="BackgroundImageFix" result="shape"/>
<feGaussianBlur stdDeviation="6" result="effect1_foregroundBlur_128_14059"/>
</filter>
</defs>
</svg>
