<svg width="361" height="249" viewBox="0 0 361 249" fill="none" xmlns="http://www.w3.org/2000/svg">
<rect x="104.094" y="78.3743" width="153.758" height="170.388" fill="#D39D8C"/>
<path d="M91.5611 84.8276C86.8656 84.8276 84.7596 78.9404 88.3896 75.9621L177.801 2.60353C179.645 1.09082 182.3 1.09081 184.144 2.60353L273.555 75.9621C277.185 78.9404 275.079 84.8276 270.384 84.8276H91.5611Z" fill="#C2CAFF"/>
<path d="M96.502 84.8276L180.973 14.938L265.443 84.8276H96.502Z" fill="#444B89" fill-opacity="0.43"/>
<path d="M104.093 84.8261L180.972 21.7498L257.852 84.8261V89.0673H104.093V84.8261Z" fill="#D39D8C"/>
<path d="M165.973 162.113C165.973 153.829 172.688 147.113 180.973 147.113C189.257 147.113 195.973 153.829 195.973 162.113V197.113H165.973V162.113Z" fill="#0C1648"/>
<ellipse cx="190.659" cy="176.107" rx="2.27093" ry="2.25" fill="white"/>
<circle cx="180.973" cy="71.1133" r="18" fill="#0C1648" stroke="#783582" stroke-width="4"/>
<path d="M144.473 114.613C144.473 108.814 149.174 104.113 154.973 104.113C160.772 104.113 165.473 108.814 165.473 114.613V128.532H144.473V114.613Z" fill="#0C1648"/>
<path d="M140.973 129.532C140.973 128.98 141.42 128.532 141.973 128.532H167.973C168.525 128.532 168.973 128.98 168.973 129.532V133.113C168.973 133.666 168.525 134.113 167.973 134.113H141.973C141.42 134.113 140.973 133.666 140.973 133.113V129.532Z" fill="#783582"/>
<path d="M196.473 114.613C196.473 108.814 201.174 104.113 206.973 104.113C212.772 104.113 217.473 108.814 217.473 114.613V128.532H196.473V114.613Z" fill="#0C1648"/>
<path d="M192.973 129.532C192.973 128.98 193.42 128.532 193.973 128.532H219.973C220.525 128.532 220.973 128.98 220.973 129.532V133.113C220.973 133.666 220.525 134.113 219.973 134.113H193.973C193.42 134.113 192.973 133.666 192.973 133.113V129.532Z" fill="#783582"/>
</svg>
