<svg width="361" height="274" viewBox="0 0 361 274" fill="none" xmlns="http://www.w3.org/2000/svg">
<rect x="98.2824" y="95.4675" width="163.591" height="177.646" fill="#CF5F95"/>
<path d="M244.35 23.6855H226.24V40.4685L244.35 55.6427V23.6855Z" fill="#9DADE5"/>
<rect width="22.8761" height="8.47666" rx="1" transform="matrix(-1 0 0 1 246.907 20.4668)" fill="#C2CAFF"/>
<path d="M83.9157 92.2915C79.236 92.2915 77.1208 86.4375 80.7196 83.4463L176.882 3.51782C178.734 1.97805 181.421 1.97805 183.274 3.51782L279.436 83.4463C283.035 86.4376 280.92 92.2915 276.24 92.2915H83.9157Z" fill="#C2CAFF"/>
<path d="M90.2055 92.2915L180.078 16.9607L269.95 92.2915H90.2055Z" fill="#444B89" fill-opacity="0.43"/>
<path d="M98.2824 92.29L180.078 24.303L261.873 92.29V96.8614H98.2824V92.29Z" fill="#CF5F95"/>
<path d="M165.078 154.74C165.078 146.456 171.794 139.74 180.078 139.74V139.74C188.362 139.74 195.078 146.456 195.078 154.74V189.74H165.078V154.74Z" fill="#0C1648"/>
<ellipse cx="189.764" cy="168.734" rx="2.27093" ry="2.25" fill="white"/>
<circle cx="180.078" cy="63.7405" r="18" fill="#0C1648" stroke="#783582" stroke-width="4"/>
<path d="M117.578 107.24C117.578 101.441 122.279 96.7405 128.078 96.7405V96.7405C133.877 96.7405 138.578 101.441 138.578 107.24V121.159H117.578V107.24Z" fill="#0C1648"/>
<path d="M114.078 122.159C114.078 121.607 114.526 121.159 115.078 121.159H141.078C141.63 121.159 142.078 121.607 142.078 122.159V125.741C142.078 126.293 141.63 126.741 141.078 126.741H115.078C114.526 126.741 114.078 126.293 114.078 125.741V122.159Z" fill="#783582"/>
<path d="M169.578 107.24C169.578 101.441 174.279 96.7405 180.078 96.7405V96.7405C185.877 96.7405 190.578 101.441 190.578 107.24V121.159H169.578V107.24Z" fill="#0C1648"/>
<path d="M166.078 122.159C166.078 121.607 166.526 121.159 167.078 121.159H193.078C193.63 121.159 194.078 121.607 194.078 122.159V125.741C194.078 126.293 193.63 126.741 193.078 126.741H167.078C166.526 126.741 166.078 126.293 166.078 125.741V122.159Z" fill="#783582"/>
<path d="M221.578 107.24C221.578 101.441 226.279 96.7405 232.078 96.7405V96.7405C237.877 96.7405 242.578 101.441 242.578 107.24V121.159H221.578V107.24Z" fill="#0C1648"/>
<path d="M218.078 122.159C218.078 121.607 218.526 121.159 219.078 121.159H245.078C245.63 121.159 246.078 121.607 246.078 122.159V125.741C246.078 126.293 245.63 126.741 245.078 126.741H219.078C218.526 126.741 218.078 126.293 218.078 125.741V122.159Z" fill="#783582"/>
<path d="M117.523 150.24C117.523 144.441 122.224 139.74 128.023 139.74V139.74C133.822 139.74 138.523 144.441 138.523 150.24V164.159H117.523V150.24Z" fill="#0C1648"/>
<path d="M114.023 165.159C114.023 164.607 114.47 164.159 115.023 164.159H141.023C141.575 164.159 142.023 164.607 142.023 165.159V168.741C142.023 169.293 141.575 169.741 141.023 169.741H115.023C114.47 169.741 114.023 169.293 114.023 168.741V165.159Z" fill="#783582"/>
<path d="M221.523 150.24C221.523 144.441 226.224 139.74 232.023 139.74V139.74C237.822 139.74 242.523 144.441 242.523 150.24V164.159H221.523V150.24Z" fill="#0C1648"/>
<path d="M218.023 165.159C218.023 164.607 218.47 164.159 219.023 164.159H245.023C245.575 164.159 246.023 164.607 246.023 165.159V168.741C246.023 169.293 245.575 169.741 245.023 169.741H219.023C218.47 169.741 218.023 169.293 218.023 168.741V165.159Z" fill="#783582"/>
</svg>
