<svg width="361" height="236" viewBox="0 0 361 236" fill="none" xmlns="http://www.w3.org/2000/svg">
<rect x="98.2248" y="99.3743" width="162.94" height="136.432" fill="#A2B5FC"/>
<path d="M220.35 7.68555H202.24V24.4685L220.35 39.6427V7.68555Z" fill="#9DADE5"/>
<rect width="22.8761" height="8.47666" rx="1" transform="matrix(-1 0 0 1 222.907 4.4668)" fill="#C2CAFF"/>
<path d="M83.5727 95.0922C78.9398 95.0922 76.7984 89.336 80.3048 86.308L176.427 3.30058C178.304 1.67959 181.086 1.67959 182.963 3.30058L279.085 86.308C282.591 89.336 280.45 95.0922 275.817 95.0922H83.5727Z" fill="#C2CAFF"/>
<path d="M90.1802 95.0922L179.695 17.1384L269.21 95.0922H90.1802Z" fill="#444B89" fill-opacity="0.43"/>
<path d="M98.2249 95.0907L179.695 24.7363L261.165 95.0907V99.8212H98.2249V95.0907Z" fill="#A2B5FC"/>
<path d="M165.005 162.393C165.005 154.109 171.721 147.393 180.005 147.393C188.289 147.393 195.005 154.109 195.005 162.393V197.393H165.005V162.393Z" fill="#0C1648"/>
<ellipse cx="189.691" cy="176.387" rx="2.27093" ry="2.25" fill="white"/>
<circle cx="180.005" cy="71.3933" r="18" fill="#0C1648" stroke="#783582" stroke-width="4"/>
<path d="M117.505 114.893C117.505 109.094 122.206 104.393 128.005 104.393C133.804 104.393 138.505 109.094 138.505 114.893V128.812H117.505V114.893Z" fill="#0C1648"/>
<path d="M114.005 129.812C114.005 129.26 114.453 128.812 115.005 128.812H141.005C141.557 128.812 142.005 129.26 142.005 129.812V133.393C142.005 133.946 141.557 134.393 141.005 134.393H115.005C114.453 134.393 114.005 133.946 114.005 133.393V129.812Z" fill="#783582"/>
<path d="M169.505 114.893C169.505 109.094 174.206 104.393 180.005 104.393C185.804 104.393 190.505 109.094 190.505 114.893V128.812H169.505V114.893Z" fill="#0C1648"/>
<path d="M166.005 129.812C166.005 129.26 166.453 128.812 167.005 128.812H193.005C193.557 128.812 194.005 129.26 194.005 129.812V133.393C194.005 133.946 193.557 134.393 193.005 134.393H167.005C166.453 134.393 166.005 133.946 166.005 133.393V129.812Z" fill="#783582"/>
<path d="M221.505 114.893C221.505 109.094 226.206 104.393 232.005 104.393C237.804 104.393 242.505 109.094 242.505 114.893V128.812H221.505V114.893Z" fill="#0C1648"/>
<path d="M218.005 129.812C218.005 129.26 218.453 128.812 219.005 128.812H245.005C245.557 128.812 246.005 129.26 246.005 129.812V133.393C246.005 133.946 245.557 134.393 245.005 134.393H219.005C218.453 134.393 218.005 133.946 218.005 133.393V129.812Z" fill="#783582"/>
<path d="M117.45 157.893C117.45 152.094 122.151 147.393 127.95 147.393C133.749 147.393 138.45 152.094 138.45 157.893V171.812H117.45V157.893Z" fill="#0C1648"/>
<path d="M113.95 172.812C113.95 172.26 114.398 171.812 114.95 171.812H140.95C141.502 171.812 141.95 172.26 141.95 172.812V176.393C141.95 176.946 141.502 177.393 140.95 177.393H114.95C114.398 177.393 113.95 176.946 113.95 176.393V172.812Z" fill="#783582"/>
<path d="M221.45 157.893C221.45 152.094 226.151 147.393 231.95 147.393C237.749 147.393 242.45 152.094 242.45 157.893V171.812H221.45V157.893Z" fill="#0C1648"/>
<path d="M217.95 172.812C217.95 172.26 218.398 171.812 218.95 171.812H244.95C245.502 171.812 245.95 172.26 245.95 172.812V176.393C245.95 176.946 245.502 177.393 244.95 177.393H218.95C218.398 177.393 217.95 176.946 217.95 176.393V172.812Z" fill="#783582"/>
</svg>
