<svg width="361" height="416" viewBox="0 0 361 416" fill="none" xmlns="http://www.w3.org/2000/svg">
<g filter="url(#filter0_f_128_13996)">
<circle cx="122.502" cy="149.908" r="6.6702" fill="#CFD2FE"/>
<circle cx="122.502" cy="131.311" r="9.05493" fill="#CFD2FE"/>
<circle cx="122.502" cy="99.8547" r="14.5022" fill="#CFD2FE"/>
<circle cx="122.502" cy="78.0617" r="10.1804" fill="#CFD2FE"/>
<circle cx="122.502" cy="45.6702" r="6.6702" fill="#CFD2FE"/>
</g>
<path d="M113.557 125.219H131.667V142.002L113.557 157.176V125.219Z" fill="#9DADE5"/>
<rect x="111" y="122" width="22.8761" height="8.47666" rx="1" fill="#C2CAFF"/>
<rect x="93.774" y="196.347" width="172.514" height="219.51" fill="#A2B5FC"/>
<path d="M78.6933 193.039C73.9231 193.039 71.8621 186.996 75.6385 184.081L176.976 105.872C178.776 104.483 181.286 104.483 183.086 105.872L284.424 184.081C288.2 186.996 286.139 193.039 281.369 193.039H78.6933Z" fill="#C2CAFF"/>
<path d="M85.2565 193.039L180.031 119.278L274.806 193.039H85.2565Z" fill="#444B89" fill-opacity="0.43"/>
<path d="M93.7739 193.038L180.031 126.467L266.288 193.038V197.514H93.7739V193.038Z" fill="#A2B5FC"/>
<path d="M165.031 345.505C165.031 337.221 171.747 330.505 180.031 330.505C188.315 330.505 195.031 337.221 195.031 345.505V380.505H165.031V345.505Z" fill="#0C1648"/>
<ellipse cx="189.717" cy="359.499" rx="2.27093" ry="2.25" fill="white"/>
<circle cx="180.031" cy="168.505" r="18" fill="#0C1648" stroke="#783582" stroke-width="4"/>
<path d="M117.531 212.005C117.531 206.206 122.232 201.505 128.031 201.505C133.83 201.505 138.531 206.206 138.531 212.005V225.924H117.531V212.005Z" fill="#0C1648"/>
<path d="M114.031 226.924C114.031 226.372 114.479 225.924 115.031 225.924H141.031C141.583 225.924 142.031 226.372 142.031 226.924V230.505C142.031 231.058 141.583 231.505 141.031 231.505H115.031C114.479 231.505 114.031 231.058 114.031 230.505V226.924Z" fill="#783582"/>
<path d="M169.531 212.005C169.531 206.206 174.232 201.505 180.031 201.505C185.83 201.505 190.531 206.206 190.531 212.005V225.924H169.531V212.005Z" fill="#0C1648"/>
<path d="M166.031 226.924C166.031 226.372 166.479 225.924 167.031 225.924H193.031C193.583 225.924 194.031 226.372 194.031 226.924V230.505C194.031 231.058 193.583 231.505 193.031 231.505H167.031C166.479 231.505 166.031 231.058 166.031 230.505V226.924Z" fill="#783582"/>
<path d="M221.531 212.005C221.531 206.206 226.232 201.505 232.031 201.505C237.83 201.505 242.531 206.206 242.531 212.005V225.924H221.531V212.005Z" fill="#0C1648"/>
<path d="M218.031 226.924C218.031 226.372 218.479 225.924 219.031 225.924H245.031C245.583 225.924 246.031 226.372 246.031 226.924V230.505C246.031 231.058 245.583 231.505 245.031 231.505H219.031C218.479 231.505 218.031 231.058 218.031 230.505V226.924Z" fill="#783582"/>
<path d="M117.531 255.005C117.531 249.206 122.232 244.505 128.031 244.505C133.83 244.505 138.531 249.206 138.531 255.005V268.924H117.531V255.005Z" fill="#0C1648"/>
<path d="M114.031 269.924C114.031 269.372 114.479 268.924 115.031 268.924H141.031C141.583 268.924 142.031 269.372 142.031 269.924V273.505C142.031 274.058 141.583 274.505 141.031 274.505H115.031C114.479 274.505 114.031 274.058 114.031 273.505V269.924Z" fill="#783582"/>
<path d="M169.531 255.005C169.531 249.206 174.232 244.505 180.031 244.505C185.83 244.505 190.531 249.206 190.531 255.005V268.924H169.531V255.005Z" fill="#0C1648"/>
<path d="M166.031 269.924C166.031 269.372 166.479 268.924 167.031 268.924H193.031C193.583 268.924 194.031 269.372 194.031 269.924V273.505C194.031 274.058 193.583 274.505 193.031 274.505H167.031C166.479 274.505 166.031 274.058 166.031 273.505V269.924Z" fill="#783582"/>
<path d="M221.531 255.005C221.531 249.206 226.232 244.505 232.031 244.505C237.83 244.505 242.531 249.206 242.531 255.005V268.924H221.531V255.005Z" fill="#0C1648"/>
<path d="M218.031 269.924C218.031 269.372 218.479 268.924 219.031 268.924H245.031C245.583 268.924 246.031 269.372 246.031 269.924V273.505C246.031 274.058 245.583 274.505 245.031 274.505H219.031C218.479 274.505 218.031 274.058 218.031 273.505V269.924Z" fill="#783582"/>
<path d="M117.531 298.005C117.531 292.206 122.232 287.505 128.031 287.505C133.83 287.505 138.531 292.206 138.531 298.005V311.924H117.531V298.005Z" fill="#0C1648"/>
<path d="M114.031 312.924C114.031 312.372 114.479 311.924 115.031 311.924H141.031C141.583 311.924 142.031 312.372 142.031 312.924V316.505C142.031 317.058 141.583 317.505 141.031 317.505H115.031C114.479 317.505 114.031 317.058 114.031 316.505V312.924Z" fill="#783582"/>
<path d="M169.531 298.005C169.531 292.206 174.232 287.505 180.031 287.505C185.83 287.505 190.531 292.206 190.531 298.005V311.924H169.531V298.005Z" fill="#0C1648"/>
<path d="M166.031 312.924C166.031 312.372 166.479 311.924 167.031 311.924H193.031C193.583 311.924 194.031 312.372 194.031 312.924V316.505C194.031 317.058 193.583 317.505 193.031 317.505H167.031C166.479 317.505 166.031 317.058 166.031 316.505V312.924Z" fill="#783582"/>
<path d="M221.531 298.005C221.531 292.206 226.232 287.505 232.031 287.505C237.83 287.505 242.531 292.206 242.531 298.005V311.924H221.531V298.005Z" fill="#0C1648"/>
<path d="M218.031 312.924C218.031 312.372 218.479 311.924 219.031 311.924H245.031C245.583 311.924 246.031 312.372 246.031 312.924V316.505C246.031 317.058 245.583 317.505 245.031 317.505H219.031C218.479 317.505 218.031 317.058 218.031 316.505V312.924Z" fill="#783582"/>
<path d="M117.476 341.005C117.476 335.206 122.177 330.505 127.976 330.505C133.775 330.505 138.476 335.206 138.476 341.005V354.924H117.476V341.005Z" fill="#0C1648"/>
<path d="M113.976 355.924C113.976 355.372 114.424 354.924 114.976 354.924H140.976C141.528 354.924 141.976 355.372 141.976 355.924V359.505C141.976 360.058 141.528 360.505 140.976 360.505H114.976C114.424 360.505 113.976 360.058 113.976 359.505V355.924Z" fill="#783582"/>
<path d="M221.476 341.005C221.476 335.206 226.177 330.505 231.976 330.505C237.775 330.505 242.476 335.206 242.476 341.005V354.924H221.476V341.005Z" fill="#0C1648"/>
<path d="M217.976 355.924C217.976 355.372 218.424 354.924 218.976 354.924H244.976C245.528 354.924 245.976 355.372 245.976 355.924V359.505C245.976 360.058 245.528 360.505 244.976 360.505H218.976C218.424 360.505 217.976 360.058 217.976 359.505V355.924Z" fill="#783582"/>
<defs>
<filter id="filter0_f_128_13996" x="93" y="-15" width="59.0044" height="187" filterUnits="userSpaceOnUse" color-interpolation-filters="sRGB">
<feFlood flood-opacity="0" result="BackgroundImageFix"/>
<feBlend mode="normal" in="SourceGraphic" in2="BackgroundImageFix" result="shape"/>
<feGaussianBlur stdDeviation="7.5" result="effect1_foregroundBlur_128_13996"/>
</filter>
</defs>
</svg>
