<svg width="361" height="273" viewBox="0 0 361 273" fill="none" xmlns="http://www.w3.org/2000/svg">
<rect x="98.2355" y="95.1204" width="163.591" height="177.646" fill="#CF5F95"/>
<path d="M108.588 30.6855H126.698V47.4685L108.588 62.6427V30.6855Z" fill="#9DADE5"/>
<rect x="106.031" y="27.4668" width="22.8761" height="8.47666" rx="1" fill="#C2CAFF"/>
<path d="M83.8688 91.9443C79.1891 91.9443 77.0739 86.0904 80.6727 83.0991L176.835 3.17065C178.688 1.63088 181.375 1.63088 183.227 3.17065L279.389 83.0991C282.988 86.0904 280.873 91.9443 276.193 91.9443H83.8688Z" fill="#C2CAFF"/>
<path d="M90.1586 91.9443L180.031 16.6135L269.904 91.9443H90.1586Z" fill="#444B89" fill-opacity="0.43"/>
<path d="M98.2355 91.9429L180.031 23.9558L261.827 91.9429V96.5142H98.2355V91.9429Z" fill="#CF5F95"/>
<path d="M165.031 154.393C165.031 146.109 171.747 139.393 180.031 139.393C188.315 139.393 195.031 146.109 195.031 154.393V189.393H165.031V154.393Z" fill="#0C1648"/>
<ellipse cx="189.717" cy="168.387" rx="2.27093" ry="2.25" fill="white"/>
<circle cx="180.031" cy="63.3933" r="18" fill="#0C1648" stroke="#783582" stroke-width="4"/>
<path d="M117.531 106.893C117.531 101.094 122.232 96.3933 128.031 96.3933C133.83 96.3933 138.531 101.094 138.531 106.893V120.812H117.531V106.893Z" fill="#0C1648"/>
<path d="M114.031 121.812C114.031 121.26 114.479 120.812 115.031 120.812H141.031C141.583 120.812 142.031 121.26 142.031 121.812V125.393C142.031 125.946 141.583 126.393 141.031 126.393H115.031C114.479 126.393 114.031 125.946 114.031 125.393V121.812Z" fill="#783582"/>
<path d="M169.531 106.893C169.531 101.094 174.232 96.3933 180.031 96.3933C185.83 96.3933 190.531 101.094 190.531 106.893V120.812H169.531V106.893Z" fill="#0C1648"/>
<path d="M166.031 121.812C166.031 121.26 166.479 120.812 167.031 120.812H193.031C193.583 120.812 194.031 121.26 194.031 121.812V125.393C194.031 125.946 193.583 126.393 193.031 126.393H167.031C166.479 126.393 166.031 125.946 166.031 125.393V121.812Z" fill="#783582"/>
<path d="M221.531 106.893C221.531 101.094 226.232 96.3933 232.031 96.3933C237.83 96.3933 242.531 101.094 242.531 106.893V120.812H221.531V106.893Z" fill="#0C1648"/>
<path d="M218.031 121.812C218.031 121.26 218.479 120.812 219.031 120.812H245.031C245.583 120.812 246.031 121.26 246.031 121.812V125.393C246.031 125.946 245.583 126.393 245.031 126.393H219.031C218.479 126.393 218.031 125.946 218.031 125.393V121.812Z" fill="#783582"/>
<path d="M117.476 149.893C117.476 144.094 122.177 139.393 127.976 139.393C133.775 139.393 138.476 144.094 138.476 149.893V163.812H117.476V149.893Z" fill="#0C1648"/>
<path d="M113.976 164.812C113.976 164.26 114.424 163.812 114.976 163.812H140.976C141.528 163.812 141.976 164.26 141.976 164.812V168.393C141.976 168.946 141.528 169.393 140.976 169.393H114.976C114.424 169.393 113.976 168.946 113.976 168.393V164.812Z" fill="#783582"/>
<path d="M221.476 149.893C221.476 144.094 226.177 139.393 231.976 139.393C237.775 139.393 242.476 144.094 242.476 149.893V163.812H221.476V149.893Z" fill="#0C1648"/>
<path d="M217.976 164.812C217.976 164.26 218.424 163.812 218.976 163.812H244.976C245.528 163.812 245.976 164.26 245.976 164.812V168.393C245.976 168.946 245.528 169.393 244.976 169.393H218.976C218.424 169.393 217.976 168.946 217.976 168.393V164.812Z" fill="#783582"/>
</svg>
