<svg width="361" height="223" viewBox="0 0 361 223" fill="none" xmlns="http://www.w3.org/2000/svg">
<rect x="115.428" y="97.7085" width="130.734" height="124.405" fill="#D39D8C"/>
<path d="M105.008 100.516C100.719 100.516 98.4209 95.4699 101.236 92.2341L177.259 4.85014C179.252 2.5592 182.81 2.55921 184.803 4.85014L260.826 92.2341C263.641 95.4699 261.343 100.516 257.054 100.516H105.008Z" fill="#C2CAFF"/>
<path d="M109.95 100.516L181.031 18.1228L252.112 100.516H109.95Z" fill="#444B89" fill-opacity="0.43"/>
<path d="M116.338 100.514L181.031 26.1533L245.724 100.514V105.514H116.338V100.514Z" fill="#D39D8C"/>
<path d="M165.795 162.983C165.795 154.699 172.511 147.983 180.795 147.983C189.079 147.983 195.795 154.699 195.795 162.983V197.983H165.795V162.983Z" fill="#0C1648"/>
<ellipse cx="190.481" cy="176.977" rx="2.27093" ry="2.25" fill="white"/>
<circle cx="180.795" cy="71.9834" r="18" fill="#0C1648" stroke="#783582" stroke-width="4"/>
<path d="M144.295 115.483C144.295 109.684 148.996 104.983 154.795 104.983C160.594 104.983 165.295 109.684 165.295 115.483V129.402H144.295V115.483Z" fill="#0C1648"/>
<path d="M140.795 130.402C140.795 129.85 141.243 129.402 141.795 129.402H167.795C168.347 129.402 168.795 129.85 168.795 130.402V133.983C168.795 134.536 168.347 134.983 167.795 134.983H141.795C141.243 134.983 140.795 134.536 140.795 133.983V130.402Z" fill="#783582"/>
<path d="M196.295 115.483C196.295 109.684 200.996 104.983 206.795 104.983C212.594 104.983 217.295 109.684 217.295 115.483V129.402H196.295V115.483Z" fill="#0C1648"/>
<path d="M192.795 130.402C192.795 129.85 193.243 129.402 193.795 129.402H219.795C220.347 129.402 220.795 129.85 220.795 130.402V133.983C220.795 134.536 220.347 134.983 219.795 134.983H193.795C193.243 134.983 192.795 134.536 192.795 133.983V130.402Z" fill="#783582"/>
</svg>
