<svg width="361" height="353" viewBox="0 0 361 353" fill="none" xmlns="http://www.w3.org/2000/svg">
<rect x="88.548" y="209.637" width="183.06" height="143.232" fill="#A2B5FC"/>
<g filter="url(#filter0_f_128_14029)">
<circle r="0.05" transform="matrix(-1 0 0 1 239.781 15.2045)" fill="#CFD2FE"/>
<circle r="0.05" transform="matrix(-1 0 0 1 236.37 23.5002)" fill="#CFD2FE"/>
</g>
<path d="M242.319 155.219H224.209V172.002L242.319 187.176V155.219Z" fill="#9DADE5"/>
<rect width="22.8761" height="8.47666" rx="1" transform="matrix(-1 0 0 1 244.876 152)" fill="#C2CAFF"/>
<path d="M73.0537 222.933C68.1464 222.933 66.1757 216.601 70.2165 213.816L177.24 140.062C178.949 138.885 181.207 138.885 182.915 140.062L289.939 213.816C293.98 216.601 292.009 222.933 287.102 222.933H73.0537Z" fill="#C2CAFF"/>
<path d="M79.5097 222.933L180.078 153.043L280.646 222.933H79.5097Z" fill="#444B89" fill-opacity="0.43"/>
<path d="M88.5478 222.932L180.078 159.855L271.608 222.932V227.173H88.5478V222.932Z" fill="#A2B5FC"/>
<path d="M165.078 246.393C165.078 238.109 171.794 231.393 180.078 231.393C188.362 231.393 195.078 238.109 195.078 246.393V281.393H165.078V246.393Z" fill="#0C1648"/>
<ellipse cx="189.764" cy="260.387" rx="2.27093" ry="2.25" fill="white"/>
<circle cx="180.078" cy="198.393" r="18" fill="#0C1648" stroke="#783582" stroke-width="4"/>
<path d="M117.523 241.893C117.523 236.094 122.224 231.393 128.023 231.393C133.822 231.393 138.523 236.094 138.523 241.893V255.812H117.523V241.893Z" fill="#0C1648"/>
<path d="M114.023 256.812C114.023 256.26 114.47 255.812 115.023 255.812H141.023C141.575 255.812 142.023 256.26 142.023 256.812V260.393C142.023 260.946 141.575 261.393 141.023 261.393H115.023C114.47 261.393 114.023 260.946 114.023 260.393V256.812Z" fill="#783582"/>
<path d="M221.523 241.893C221.523 236.094 226.224 231.393 232.023 231.393C237.822 231.393 242.523 236.094 242.523 241.893V255.812H221.523V241.893Z" fill="#0C1648"/>
<path d="M218.023 256.812C218.023 256.26 218.47 255.812 219.023 255.812H245.023C245.575 255.812 246.023 256.26 246.023 256.812V260.393C246.023 260.946 245.575 261.393 245.023 261.393H219.023C218.47 261.393 218.023 260.946 218.023 260.393V256.812Z" fill="#783582"/>
<defs>
<filter id="filter0_f_128_14029" x="204" y="0.154541" width="59" height="201.845" filterUnits="userSpaceOnUse" color-interpolation-filters="sRGB">
<feFlood flood-opacity="0" result="BackgroundImageFix"/>
<feBlend mode="normal" in="SourceGraphic" in2="BackgroundImageFix" result="shape"/>
<feGaussianBlur stdDeviation="7.5" result="effect1_foregroundBlur_128_14029"/>
</filter>
</defs>
</svg>
